<?xml version="1.0" encoding="UTF-8"?>
<svg id="Layer_1" data-name="Layer 1" xmlns="http://www.w3.org/2000/svg" viewBox="0 0 162.18 195.36">
  <defs>
    <style>
      .cls-1 {
        fill: #002f5e;
        stroke-width: 0px;
      }
    </style>
  </defs>
  <path class="cls-1" d="m155.04,135.7c-1.25.66-2.48,1.18-3.72,1.59-1.85.61-3.71.94-5.62,1.02s-3.9-.1-6-.5c-6.76-1.29-7.34-3.49-5.77-4.99.72-.68,1.88-1.22,3.11-1.46.34-.07.68-.14,1.04-.22,5.29-1.22,12.04-4.15,11.11-10.67-.51-3.55-3.64-6.49-7.19-6.96-.34-.04-.68-.07-1.01-.07-4.64-.05-8.13,3.84-10.55,7.52-.17.26-.34.53-.5.79-3.99,6.32-9.17,17.95-16.87,27.99-2.16,2.81-4.52,5.5-7.11,7.91-5.48,5.12-11.97,9.01-19.78,10.21-.18.03-.37.04-.55.06-1.47.2-2.98.32-4.55.32s-3.08-.12-4.55-.32c-.18-.02-.37-.04-.55-.06-7.28-1.11-13.43-4.57-18.67-9.2-.07-.06-.15-.12-.22-.19-.09-.08-.18-.17-.27-.25-2.83-2.56-5.4-5.45-7.73-8.49-7.7-10.04-12.88-21.68-16.87-27.99-2.43-3.9-6.08-8.36-11.05-8.31-.33,0-.67.03-1.01.07-3.55.47-6.68,3.41-7.19,6.96-.93,6.52,5.82,9.46,11.11,10.67.35.08.7.15,1.04.22.49.1.97.24,1.42.42,3.12,1.27,4.53,4.38-4.08,6.03-2.1.4-4.08.58-6,.5s-3.77-.41-5.62-1.02c-1.23-.4-2.47-.93-3.72-1.59-.76-.41-1.49-.85-2.17-1.33-.66-.46-1.29-.96-1.88-1.48.17.55.36,1.1.55,1.64,1.9,5.38,4.5,10.16,7.91,14.61,9.39,12.26,23.85,20.49,42.69,29.09,9.15,4.17,20.66,11.73,24.17,15.88.17.2.35.37.56.52.6.46,1.34.72,2.11.72h0c.77,0,1.51-.26,2.11-.72.2-.15.39-.33.55-.52,3.51-4.16,15.02-11.72,24.17-15.88,18.84-8.6,33.3-16.83,42.69-29.09,3.41-4.45,6.01-9.23,7.91-14.61.19-.54.38-1.09.55-1.64-.59.52-1.22,1.02-1.88,1.48-.69.49-1.41.93-2.17,1.34h.05Z"/>
  <path class="cls-1" d="m162.11,10.74c-.02-.13-.02-.28-.05-.4-.07-.24-.17-.46-.29-.67-.03-.06-.05-.13-.08-.19-.11-.19-.26-.35-.41-.52-.05-.06-.09-.14-.15-.2-.13-.13-.28-.23-.43-.33-.1-.07-.18-.16-.28-.22-.12-.07-.26-.11-.39-.17-.14-.06-.28-.14-.43-.19-.12-.04-.25-.04-.37-.06-.17-.03-.34-.08-.52-.08-.14,0-.29.03-.44.05-.16.02-.32.01-.48.05-.19.05-.37.14-.56.22-.12.05-.23.07-.35.14h0s-.05.03-.08.04c-38.03,21.54-66.05-.22-73.66-7.31-.05-.05-.12-.11-.17-.16,0,0-.01,0-.02,0,0,0-.02-.02-.03-.03-.09-.08-.19-.11-.29-.18-.18-.13-.36-.27-.56-.35-.15-.06-.32-.07-.48-.1C81.42.06,81.26,0,81.09,0s-.33.06-.5.09c-.16.03-.32.04-.48.1-.2.08-.38.22-.56.35-.09.07-.2.1-.28.18,0,0-.02.02-.03.03,0,0-.01,0-.02,0-.05.05-.11.11-.17.16-7.61,7.08-35.63,28.85-73.66,7.31-.03-.02-.05-.03-.08-.04h0c-.11-.06-.23-.09-.35-.14-.19-.08-.37-.18-.56-.22-.16-.04-.32-.04-.48-.05-.15-.01-.29-.05-.44-.05-.18,0-.35.05-.52.08-.12.02-.25.02-.37.06-.16.05-.3.13-.44.19-.13.06-.26.09-.38.16-.11.06-.2.16-.3.23-.14.1-.29.19-.41.32-.06.06-.1.13-.15.2-.14.16-.29.33-.41.52-.03.06-.05.13-.08.19-.11.21-.22.43-.29.67-.04.13-.03.27-.05.4C.05,10.94,0,11.12,0,11.32H0v94.29s.03-.04.04-.06c1.15-1.55,2.46-2.87,3.9-3.97,1.44-1.1,3-1.99,4.64-2.67,1.65-.68,3.38-1.16,5.15-1.46s3.6-.39,5.44-.32c7.34.29,14.81,3.4,19.95,8.44,8,7.84,11.63,18.88,16.68,28.63,4.77,9.23,13.51,20.68,25.3,20.68h0c11.78,0,20.53-11.45,25.3-20.68,5.05-9.75,8.68-20.8,16.68-28.63,5.14-5.04,12.61-8.15,19.95-8.44,4.58-.18,9.12.73,12.99,2.95,2.33,1.33,4.42,3.14,6.14,5.47,0,.02.03.04.04.06V11.31h0c0-.2-.05-.38-.08-.57h-.01Zm-42.89,50.36c-.28.17-.57.36-.88.57-1.03.7-2.2,1.64-3.52,2.93-1.73,1.69-3.72,3.97-5.96,7.06-3.08,4.19-6.87,6.73-11.39,7.84-1.6.39-3.29.61-5.07.66-1.48.03-3.2-.35-4.93-.93-.85-.28-1.7-.6-2.53-.95-1.38-.58-2.7-1.23-3.83-1.82h0c-1.13.59-2.45,1.24-3.83,1.82-.84.36-1.7.68-2.56.96-1.73.57-3.44.95-4.9.92-1.8-.05-3.49-.27-5.1-.67-4.51-1.11-8.29-3.64-11.36-7.83-2.26-3.11-4.25-5.4-5.99-7.09-1.3-1.27-2.45-2.2-3.47-2.9-.31-.21-.6-.4-.88-.57-.6-.35-.98-.89-1.13-1.48-.16-.64-.03-1.32.36-1.87.2-.28.46-.54.82-.73.38-.19.8-.39,1.22-.58,1.53-.7,3.3-1.34,5.26-1.8.55-.13,1.1-.26,1.69-.35,1.5-.24,2.98-.38,4.42-.39,6.25-.06,11.83,2.24,16,9.48.4.69.78,1.31,1.16,1.92,3.63,5.86,6.18,7.91,8.32,8.6h0c2.14-.68,4.69-2.73,8.32-8.6.38-.6.76-1.23,1.16-1.92,4.17-7.24,9.75-9.55,16-9.48,1.44.02,2.92.16,4.42.39.58.09,1.13.22,1.69.35,1.96.46,3.74,1.11,5.27,1.8.42.19.84.39,1.21.58.35.19.61.44.81.72.39.55.52,1.24.37,1.88-.15.59-.53,1.13-1.13,1.48h-.04Zm-38.12,77.69c-5.57,0-10.2-3.95-11.27-9.17-.15-.75-.23-1.52-.23-2.31s.08-1.58.23-2.33c1.07-5.26,5.7-9.2,11.27-9.21,5.97,0,10.86,4.53,11.45,10.35.04.39.06.78.06,1.18s-.02.79-.06,1.17c-.59,5.78-5.48,10.3-11.45,10.31h0Zm-30.11-38.31c0-6.37,5.19-11.54,11.53-11.54s11.49,5.16,11.49,11.54-5.15,11.49-11.49,11.49-11.53-5.15-11.53-11.49Zm37.2,0c0-6.37,5.15-11.54,11.49-11.54s11.53,5.16,11.53,11.54-5.19,11.49-11.53,11.49-11.49-5.15-11.49-11.49Zm-10-75.6c.84-1.43,1.57-2.93,2.11-4.53.14-.39.47-.59.8-.59s.67.2.8.59c.54,1.6,1.28,3.12,2.12,4.55,2.22,3.79,5.41,6.92,9.25,9.08,1.43.81,2.94,1.51,4.53,2.02.81.27.81,1.38,0,1.63-2.45.79-4.71,1.98-6.77,3.46-2.82,2.02-5.2,4.6-6.97,7.6-.86,1.45-1.6,2.98-2.15,4.61-.14.39-.47.59-.8.59s-.67-.2-.8-.59c-.55-1.63-1.29-3.16-2.15-4.62-1.78-3.02-4.17-5.61-7.02-7.63-2.04-1.45-4.28-2.63-6.71-3.42-.82-.26-.82-1.37,0-1.63,1.59-.51,3.09-1.21,4.53-2.02,3.84-2.16,7.04-5.31,9.26-9.11h-.03Z"/>
</svg>