<?xml version="1.0" standalone="no"?>
<!DOCTYPE svg PUBLIC "-//W3C//DTD SVG 20010904//EN"
 "http://www.w3.org/TR/2001/REC-SVG-20010904/DTD/svg10.dtd">
<svg version="1.0" xmlns="http://www.w3.org/2000/svg"
 width="1856.000000pt" height="576.000000pt" viewBox="0 0 1856.000000 576.000000"
 preserveAspectRatio="xMidYMid meet">

<g transform="translate(0.000000,576.000000) scale(0.100000,-0.100000)"
fill="#000000" stroke="none">
<path d="M3164 4120 c-120 -17 -234 -100 -295 -213 -33 -60 -34 -66 -34 -172
0 -98 3 -116 27 -167 37 -80 107 -152 187 -191 61 -30 72 -32 171 -32 94 0
111 3 163 27 121 57 198 150 227 277 35 150 -33 318 -163 404 -86 57 -187 81
-283 67z"/>
<path d="M2325 3646 c-126 -30 -224 -110 -279 -226 -28 -58 -31 -75 -31 -160
0 -85 3 -102 31 -160 41 -86 108 -153 192 -193 61 -29 75 -32 167 -32 88 0
107 3 157 27 112 52 181 127 219 235 27 76 22 193 -10 275 -43 110 -149 199
-276 233 -69 18 -101 18 -170 1z"/>
<path d="M3960 3649 c-189 -37 -333 -225 -317 -415 7 -90 56 -191 123 -254 75
-71 149 -103 249 -108 134 -7 232 33 323 133 71 78 96 146 96 260 0 79 -4 98
-31 157 -55 118 -166 203 -298 227 -66 12 -82 12 -145 0z"/>
<path d="M13819 3637 c-21 -14 -41 -41 -53 -70 -20 -47 -20 -47 0 -94 35 -85
125 -117 211 -76 67 31 91 134 48 200 -42 63 -142 83 -206 40z"/>
<path d="M6072 3590 c-12 -5 -96 -24 -185 -41 -209 -40 -300 -69 -362 -116
-131 -101 -178 -228 -178 -493 0 -207 27 -305 111 -409 87 -107 244 -156 408
-127 190 33 306 147 336 329 37 222 -94 404 -316 438 -110 17 -198 -3 -279
-65 -45 -35 -47 -35 -47 -13 0 42 29 123 52 145 41 37 110 60 279 92 90 17
178 34 194 38 l30 8 3 112 c3 119 2 121 -46 102z m-216 -619 c75 -34 111 -109
101 -209 -11 -108 -70 -162 -175 -162 -106 0 -169 50 -192 153 -14 65 1 118
48 169 61 65 143 83 218 49z"/>
<path d="M8693 3590 c-11 -5 -103 -25 -202 -45 -211 -41 -289 -67 -360 -119
-122 -90 -171 -232 -171 -496 0 -139 16 -225 54 -307 61 -129 164 -201 318
-224 64 -9 90 -8 159 6 149 30 235 93 292 213 30 63 32 74 32 177 0 104 -2
114 -33 177 -38 77 -92 130 -171 166 -45 21 -75 27 -153 30 -113 5 -174 -11
-244 -64 -43 -33 -44 -33 -44 -11 0 42 29 123 52 145 42 38 110 60 305 96 105
20 194 36 197 36 3 0 6 52 6 115 0 63 -3 115 -7 114 -5 0 -18 -4 -30 -9z
m-211 -626 c15 -8 40 -30 55 -51 23 -30 28 -48 31 -108 5 -96 -24 -157 -93
-193 -39 -20 -131 -20 -171 1 -128 66 -137 264 -17 338 62 39 134 43 195 13z"/>
<path d="M10810 3587 c-49 -17 -80 -67 -80 -130 0 -45 4 -54 40 -88 48 -46 47
-66 -6 -127 l-34 -40 47 -41 47 -42 52 52 c135 133 165 339 58 401 -42 23 -84
29 -124 15z"/>
<path d="M6675 3254 c-11 -2 -46 -9 -78 -16 -68 -13 -155 -65 -206 -123 -19
-22 -48 -69 -65 -105 -29 -61 -31 -71 -31 -185 0 -115 1 -123 32 -186 71 -144
202 -226 390 -244 74 -7 194 6 279 31 l54 15 0 101 c0 99 0 100 -22 95 -128
-30 -173 -37 -234 -37 -103 0 -163 21 -213 75 -22 24 -41 53 -41 64 0 19 10
19 282 21 209 0 285 4 291 13 4 7 6 53 4 102 -13 234 -134 360 -367 379 -30 2
-64 3 -75 0z m125 -212 c35 -17 80 -81 80 -114 0 -16 -15 -18 -170 -18 -122 0
-170 3 -170 12 0 24 53 100 83 119 41 25 129 26 177 1z"/>
<path d="M7373 3250 c-34 -5 -89 -16 -122 -26 l-61 -17 0 -98 c0 -59 4 -99 10
-99 5 0 45 10 87 22 106 30 234 31 283 3 50 -30 53 -67 8 -95 -26 -16 -50 -20
-121 -20 l-88 0 3 -87 3 -88 107 -5 c87 -4 110 -9 127 -24 30 -27 24 -73 -12
-100 -25 -19 -42 -21 -140 -20 -76 0 -132 6 -172 18 -118 35 -106 43 -103 -75
l3 -103 50 -13 c160 -40 360 -37 483 9 133 49 206 188 158 301 -14 36 -65 83
-104 98 -24 9 -24 10 16 39 59 42 75 79 70 160 -3 54 -9 74 -31 103 -34 45
-99 84 -169 103 -70 18 -207 25 -285 14z"/>
<path d="M9159 3250 c-80 -10 -188 -37 -205 -51 -10 -8 -12 -35 -7 -107 3 -54
7 -98 8 -100 1 -1 22 5 46 13 130 47 285 58 355 26 45 -21 74 -54 74 -86 0
-19 -6 -20 -143 -21 -186 -1 -261 -21 -340 -93 -63 -57 -91 -161 -66 -248 9
-34 28 -63 64 -99 118 -118 328 -122 464 -9 l31 27 0 -24 c1 -67 3 -68 116
-68 l104 0 0 293 c0 325 -5 363 -60 430 -79 94 -252 140 -441 117z m281 -492
c0 -7 -9 -31 -19 -53 -36 -77 -111 -125 -196 -125 -38 0 -52 5 -76 29 -48 48
-32 111 36 142 50 23 255 28 255 7z"/>
<path d="M10231 3245 c-38 -9 -86 -29 -118 -50 -29 -19 -55 -35 -58 -35 -3 0
-5 18 -5 40 l0 40 -110 0 -110 0 0 -555 0 -555 120 0 120 0 0 176 0 176 23
-16 c78 -58 188 -83 285 -66 209 36 322 189 322 434 0 286 -210 469 -469 411z
m127 -221 c61 -36 92 -103 91 -199 -1 -83 -14 -124 -54 -166 -80 -85 -227 -76
-289 18 -62 94 -51 260 20 325 62 55 159 65 232 22z"/>
<path d="M11310 3249 c-279 -41 -439 -275 -374 -549 37 -159 158 -262 349
-297 74 -14 104 -14 179 -5 50 6 108 16 129 22 l37 11 0 106 c0 94 -2 104 -17
99 -78 -30 -232 -39 -307 -17 -56 16 -126 78 -126 111 0 19 7 20 175 20 l175
0 0 85 0 85 -170 0 c-185 0 -190 2 -150 53 49 62 176 90 295 63 39 -8 80 -18
93 -22 22 -6 22 -6 22 99 l0 105 -32 11 c-39 13 -162 31 -198 30 -14 -1 -50
-5 -80 -10z"/>
<path d="M12180 3246 c-56 -12 -136 -52 -160 -80 -20 -26 -29 -19 -32 27 l-3
42 -102 3 -103 3 0 -556 0 -555 114 0 114 0 6 73 c4 39 4 119 1 176 l-6 104
23 -17 c133 -97 326 -94 461 9 188 144 203 514 27 679 -59 56 -95 74 -178 92
-79 16 -89 16 -162 0z m115 -219 c24 -14 50 -40 65 -67 22 -39 25 -58 25 -135
0 -77 -4 -96 -25 -135 -64 -115 -239 -120 -316 -9 -23 33 -28 53 -32 118 -7
119 24 193 96 231 53 27 136 26 187 -3z"/>
<path d="M14600 3253 c-232 -20 -387 -156 -422 -368 -14 -81 1 -191 33 -259
92 -197 330 -279 600 -206 l39 11 0 104 c0 58 -3 105 -7 105 -5 0 -30 -7 -57
-15 -75 -23 -200 -20 -254 6 -64 31 -96 85 -100 171 -7 114 33 186 122 223 63
27 186 21 272 -12 12 -5 14 11 12 103 l-3 108 -40 12 c-47 13 -145 22 -195 17z"/>
<path d="M12780 2825 l0 -415 120 0 120 0 0 160 0 160 155 0 155 0 0 -160 0
-161 123 3 122 3 -1 155 c0 85 -1 271 -2 413 l-2 257 -120 0 -120 0 0 -150 0
-150 -155 0 -155 0 0 150 0 150 -120 0 -120 0 0 -415z"/>
<path d="M13780 2825 l0 -415 120 0 120 0 0 415 0 415 -120 0 -120 0 0 -415z"/>
<path d="M14914 3227 c-3 -8 -4 -52 -2 -98 l3 -84 135 -5 135 -5 3 -312 2
-313 120 0 120 0 0 315 0 315 135 0 135 0 0 100 0 100 -390 0 c-316 0 -392 -3
-396 -13z"/>
<path d="M15810 2824 l0 -416 263 4 c258 3 263 3 317 29 30 14 72 43 92 63 91
89 89 276 -3 366 -65 63 -130 82 -291 88 l-138 4 0 139 0 139 -120 0 -120 0 0
-416z m466 -77 c32 -38 33 -95 1 -125 -26 -24 -51 -30 -154 -36 l-73 -4 0 100
0 100 101 -4 c96 -3 102 -4 125 -31z"/>
<path d="M2287 2701 c-291 -96 -372 -456 -148 -663 80 -75 156 -103 271 -102
100 1 164 22 241 81 94 71 149 185 149 308 0 217 -159 384 -375 392 -59 2 -95
-2 -138 -16z"/>
<path d="M3937 2710 c-286 -72 -392 -432 -191 -649 150 -162 398 -172 566 -22
61 55 116 163 124 247 17 162 -74 322 -223 396 -52 26 -77 31 -150 34 -49 2
-105 -1 -126 -6z"/>
<path d="M3103 2236 c-185 -60 -307 -254 -274 -438 38 -219 241 -366 454 -329
286 50 424 350 275 598 -38 64 -90 109 -168 149 -47 24 -69 29 -150 31 -61 2
-110 -2 -137 -11z"/>
</g>
</svg>
