<svg width="373" height="96" viewBox="0 0 373 96" fill="none" xmlns="http://www.w3.org/2000/svg">
<path d="M0 31.1602V64.8398C0 69.9588 2.737 74.6844 7.16961 77.2439L36.3821 94.0804C40.8214 96.6399 46.2887 96.6399 50.728 94.0804L79.9405 77.2439C84.3797 74.6844 87.1101 69.9588 87.1101 64.8398V31.1602C87.1101 26.0412 84.3797 21.3156 79.9405 18.7561L50.728 1.9196C46.2887 -0.639867 40.8214 -0.639867 36.3821 1.9196L7.16961 18.7561C2.737 21.3156 0 26.0412 0 31.1602Z" fill="#4BAEAF"/>
<path d="M63.4586 67.2061V19.8159C63.4586 19.736 63.4519 19.656 63.4452 19.5427C63.3518 19.5893 63.2917 19.6093 63.2383 19.6426C59.58 21.7222 56.783 24.6283 54.867 28.3742C53.6788 30.707 52.9912 33.1798 52.7041 35.7793C52.4972 37.7189 52.2502 39.6585 52.0232 41.5914C51.7629 43.8043 51.5025 46.0171 51.2422 48.23C51.2021 48.5566 51.1621 48.8832 51.122 49.2165C51.1154 49.2831 51.122 49.3498 51.122 49.3831C51.4558 49.3831 51.7762 49.3631 52.09 49.3831C53.6521 49.4898 54.9672 50.7428 55.1341 52.2825C55.3076 53.9022 54.333 55.4152 52.7976 55.8551C52.1968 56.0284 51.576 56.1417 50.9618 56.275C50.9017 56.2883 50.7949 56.2417 50.7682 56.1884C49.4665 53.8822 48.2315 51.5427 47.3837 49.0165C46.6827 46.937 46.162 44.8241 45.8483 42.6512C45.5012 40.2717 45.4611 37.8855 45.5546 35.486C45.7215 31.2202 45.8616 26.9544 46.0018 22.6887C46.0285 21.8355 46.0686 20.9757 45.9885 20.1292C45.8016 18.0896 45.0005 16.2833 43.6787 14.717C43.6253 14.6503 43.5919 14.6237 43.5586 14.6104C43.5252 14.6237 43.4918 14.6503 43.4384 14.717C42.1233 16.29 41.3156 18.0896 41.1286 20.1292C41.0485 20.9757 41.0886 21.8355 41.1153 22.6887C41.2555 26.9544 41.3957 31.2202 41.5625 35.486C41.656 37.8855 41.616 40.2717 41.2688 42.6512C40.9551 44.8241 40.4344 46.937 39.7334 49.0165C38.8856 51.5427 37.6506 53.8822 36.3489 56.1884C36.3222 56.2417 36.2087 56.2883 36.1553 56.275C35.5411 56.1417 34.9203 56.0284 34.3195 55.8551C32.7841 55.4152 31.8095 53.9088 31.983 52.2825C32.1499 50.7428 33.465 49.4898 35.0271 49.3831C35.3409 49.3631 35.6546 49.3831 35.9951 49.3831C35.9951 49.3498 35.9951 49.2831 35.9951 49.2165C35.9617 48.8899 35.915 48.5566 35.8749 48.23C35.6146 46.0171 35.3609 43.8043 35.0939 41.5914C34.8669 39.6518 34.6199 37.7189 34.413 35.7793C34.1326 33.1798 33.445 30.707 32.2501 28.3742C30.3342 24.6283 27.5371 21.7222 23.8789 19.6426C23.8188 19.6093 23.7587 19.5826 23.6719 19.5427C23.6719 19.656 23.6586 19.736 23.6586 19.8159C23.6586 21.269 23.6586 22.7287 23.6586 24.1817C23.6586 38.5254 23.6586 52.8624 23.6586 67.2061C23.6586 67.666 23.6118 67.6127 24.0724 67.6127C26.7894 67.6127 29.4997 67.6127 32.2167 67.6127C32.9977 67.6127 33.7788 67.6127 34.5598 67.6127C34.7134 67.6127 34.7735 67.666 34.8068 67.8193C34.8669 68.1592 34.9403 68.4925 35.0271 68.8324C35.7748 71.6985 37.1233 74.2446 39.1059 76.4575C39.8135 77.2506 40.5612 78.0105 41.4424 78.6237C42.2435 79.1836 42.9377 79.8434 43.4651 80.6699C43.4918 80.7166 43.5319 80.7632 43.5719 80.8166C43.612 80.7632 43.652 80.7166 43.6787 80.6699C44.2061 79.8434 44.8937 79.1836 45.7014 78.6237C46.5759 78.0105 47.3236 77.2506 48.0379 76.4575C50.0139 74.2446 51.3624 71.6985 52.1167 68.8324C52.2035 68.4991 52.2769 68.1592 52.337 67.8193C52.3637 67.666 52.4304 67.6127 52.584 67.6127C53.365 67.6127 54.1461 67.6127 54.9271 67.6127C57.6441 67.6127 60.3544 67.6127 63.0714 67.6127C63.532 67.6127 63.4853 67.6726 63.4853 67.2061M26.9763 50.6162V26.5012C26.9763 26.5012 27.0231 26.4812 27.0431 26.4745C27.2434 26.7278 27.4503 26.9744 27.6439 27.2277C29.4864 29.6939 30.6412 32.44 31.0218 35.4993C31.3288 37.9388 31.6025 40.385 31.8963 42.8311C32.0431 44.0642 32.19 45.2973 32.3435 46.5304C32.3569 46.6703 32.3235 46.7437 32.2033 46.8103C30.5545 47.6835 29.4597 49.0232 28.9189 50.8028C28.8722 50.9561 28.8055 51.0228 28.6319 51.0228C28.1512 51.0094 27.6639 51.0094 27.1833 51.0228C27.0164 51.0228 26.9563 50.9628 26.9763 50.8095C26.9763 50.7495 26.9763 50.6828 26.9763 50.6229M35.0605 59.621C34.9136 60.3342 34.7334 61.0473 34.6333 61.7672C34.5331 62.5204 34.4998 63.2802 34.453 64.0334C34.4397 64.22 34.4063 64.3 34.1993 64.3C31.8696 64.3 29.5464 64.3 27.2167 64.3C27.0297 64.3 26.9697 64.2533 26.9697 64.0534C26.9763 62.4737 26.9697 60.894 26.9697 59.3144V54.6154C26.9697 54.3487 26.9697 54.3487 27.2434 54.3487C27.6973 54.3487 28.1579 54.3554 28.6119 54.3487C28.7921 54.3487 28.8655 54.4087 28.9123 54.5754C29.4063 56.235 30.4143 57.5014 31.8963 58.4012C32.6573 58.8611 33.4917 59.1144 34.3596 59.2811C34.5465 59.321 34.7334 59.3744 34.927 59.4077C35.0672 59.4277 35.0872 59.4943 35.0605 59.621ZM37.7641 64.0467C37.7975 62.807 37.9577 61.5872 38.2848 60.3942C38.3249 60.2342 38.385 60.1875 38.5585 60.2209C40.3743 60.5808 41.7628 62.1138 41.9097 63.9534C41.9364 64.3 41.9364 64.3 41.5893 64.3H39.8469C39.2394 64.3 38.632 64.3 38.0245 64.3C37.8309 64.3 37.7575 64.2533 37.7641 64.0467ZM41.923 74.3046C41.923 74.3779 41.923 74.4512 41.9164 74.5245L41.8496 74.5445C40.0071 72.5849 38.7788 70.2921 38.1513 67.6393C38.2514 67.6326 38.3182 67.6193 38.3916 67.6193C39.4864 67.6193 40.5879 67.6193 41.6827 67.6193C41.8696 67.6193 41.9297 67.6726 41.9297 67.8659C41.9297 70.0188 41.9297 72.165 41.9297 74.3179M43.6987 59.4144C43.6453 59.4743 43.5986 59.5143 43.5586 59.5277C43.5185 59.5143 43.4718 59.481 43.4184 59.4144C42.4504 58.3013 41.2621 57.5414 39.8469 57.1282C39.7935 57.1148 39.7334 57.0815 39.6533 57.0482C40.5078 55.5951 41.2621 54.1155 41.9097 52.5891C42.5439 51.0961 43.0779 49.5631 43.5586 48.0034C44.0392 49.5697 44.5733 51.0961 45.2074 52.5891C45.8616 54.1155 46.616 55.5951 47.4638 57.0482C47.3837 57.0815 47.3303 57.1082 47.2702 57.1282C45.855 57.5414 44.66 58.3013 43.6987 59.4144ZM45.2675 74.5379L45.2008 74.5179C45.2008 74.4446 45.1941 74.3712 45.1941 74.2979C45.1941 72.145 45.1941 69.9988 45.1941 67.8459C45.1941 67.6526 45.2542 67.5993 45.4411 67.5993C46.5359 67.5993 47.6374 67.5993 48.7322 67.5993C48.8056 67.5993 48.879 67.6126 48.9725 67.6193C48.345 70.2721 47.1167 72.5583 45.2742 74.5245M49.0793 64.3C48.4718 64.2933 47.8643 64.3 47.2568 64.3H45.5145C45.1741 64.3 45.1674 64.3 45.1941 63.9534C45.3476 62.1138 46.7295 60.5808 48.5452 60.2209C48.7188 60.1875 48.7722 60.2342 48.8189 60.3942C49.1394 61.5939 49.3063 62.807 49.3396 64.0467C49.3396 64.2533 49.2729 64.3 49.0793 64.3ZM54.9071 46.8103C54.7869 46.7437 54.7469 46.6703 54.7669 46.5304C54.9205 45.2973 55.0673 44.0642 55.2142 42.8311C55.5079 40.385 55.7816 37.9388 56.0887 35.4993C56.4759 32.4466 57.6241 29.6939 59.4665 27.2277C59.6601 26.9678 59.8671 26.7212 60.0674 26.4745C60.0874 26.4812 60.1141 26.4945 60.1341 26.5012V50.6162C60.1341 50.6762 60.1341 50.7428 60.1341 50.8028C60.1541 50.9628 60.0941 51.0228 59.9272 51.0161C59.4465 51.0094 58.9592 51.0028 58.4786 51.0161C58.305 51.0161 58.2382 50.9561 58.1915 50.7962C57.6441 49.0165 56.556 47.6768 54.9071 46.8036M59.8938 64.3C57.564 64.3 55.2409 64.3 52.9111 64.3C52.7041 64.3 52.6641 64.2267 52.6574 64.0334C52.6107 63.2736 52.584 62.5137 52.4772 61.7672C52.377 61.0473 52.2035 60.3342 52.0499 59.621C52.0232 59.4943 52.0499 59.4277 52.1834 59.4077C52.3704 59.3744 52.5573 59.321 52.7509 59.2811C53.612 59.1078 54.4532 58.8611 55.2142 58.4012C56.6895 57.5014 57.6975 56.235 58.1982 54.5754C58.2449 54.4087 58.325 54.3421 58.4986 54.3487C58.9525 54.3621 59.4131 54.3487 59.8671 54.3487C60.1408 54.3487 60.1408 54.3487 60.1408 54.6154V59.3144C60.1408 60.894 60.1408 62.4737 60.1408 64.0534C60.1408 64.2467 60.0807 64.3 59.8938 64.3Z" fill="#1E1E1C"/>
<path d="M125.268 13.0312H128.325V30.4076H125.468V18.0235L120.174 26.7617H119.827L114.533 18.0035V30.4143H111.676V13.0379H114.76L120.007 21.7228L125.281 13.0379L125.268 13.0312Z" fill="#1D1D1B"/>
<path d="M134.167 15.637C133.833 15.9703 133.439 16.1369 132.972 16.1369C132.504 16.1369 132.104 15.9703 131.757 15.637C131.423 15.2904 131.263 14.8838 131.263 14.4239C131.263 13.964 131.43 13.5641 131.757 13.2308C132.09 12.8842 132.491 12.7109 132.972 12.7109C133.452 12.7109 133.86 12.8842 134.187 13.2308C134.52 13.5641 134.687 13.9573 134.687 14.4239C134.687 14.8905 134.514 15.2904 134.167 15.637ZM134.313 30.4072H131.63V17.9965H134.313V30.4072Z" fill="#1D1D1B"/>
<path d="M145.802 22.9351V17.9961H148.486V30.4068H145.802V25.4679H140.108V30.4068H137.424V17.9961H140.108V22.9351H145.802Z" fill="#1D1D1B"/>
<path d="M154.127 15.637C153.793 15.9703 153.399 16.1369 152.932 16.1369C152.465 16.1369 152.064 15.9703 151.717 15.637C151.383 15.2904 151.223 14.8838 151.223 14.4239C151.223 13.964 151.39 13.5641 151.717 13.2308C152.051 12.8842 152.451 12.7109 152.932 12.7109C153.412 12.7109 153.82 12.8842 154.147 13.2308C154.481 13.5641 154.647 13.9573 154.647 14.4239C154.647 14.8905 154.474 15.2904 154.127 15.637ZM154.28 30.4072H151.597V17.9965H154.28V30.4072Z" fill="#1D1D1B"/>
<path d="M163.252 30.7274C161.376 30.7274 159.814 30.1008 158.553 28.8411C157.311 27.568 156.69 26.0217 156.69 24.2021C156.69 22.3824 157.311 20.8028 158.553 19.563C159.814 18.3033 161.376 17.6768 163.252 17.6768C164.461 17.6768 165.562 17.97 166.557 18.5432C167.551 19.1231 168.299 19.903 168.793 20.8761L166.483 22.2158C166.203 21.6226 165.776 21.156 165.202 20.8161C164.627 20.4762 163.973 20.3095 163.226 20.3095C162.131 20.3095 161.21 20.6828 160.469 21.4293C159.741 22.1892 159.374 23.1156 159.374 24.2087C159.374 25.3018 159.741 26.2283 160.469 26.9882C161.216 27.7347 162.137 28.1079 163.226 28.1079C163.953 28.1079 164.614 27.9346 165.202 27.6014C165.789 27.2614 166.236 26.7949 166.53 26.2016L168.84 27.5147C168.306 28.5078 167.545 29.2943 166.543 29.8742C165.542 30.4541 164.441 30.7407 163.252 30.7407V30.7274Z" fill="#1D1D1B"/>
<path d="M169.34 17.9961H180.155V20.5756H176.103V30.4068H173.419V20.5756H169.34V17.9961Z" fill="#1D1D1B"/>
<path d="M193.486 25.3426H183.593C183.793 26.2691 184.24 26.989 184.948 27.5022C185.656 28.0154 186.523 28.2687 187.571 28.2687C188.98 28.2687 190.048 27.7555 190.776 26.729L192.985 28.0221C191.777 29.8284 189.961 30.7282 187.538 30.7282C185.535 30.7282 183.9 30.115 182.638 28.8886C181.396 27.6488 180.776 26.0825 180.776 24.1962C180.776 22.3099 181.39 20.8102 182.618 19.5572C183.826 18.2974 185.402 17.6709 187.344 17.6709C189.154 17.6709 190.642 18.3108 191.817 19.5838C192.992 20.8569 193.579 22.4032 193.579 24.2229C193.579 24.5561 193.546 24.9294 193.479 25.336L193.486 25.3426ZM183.566 23.1564H190.876C190.696 22.1833 190.282 21.4301 189.648 20.8969C189.007 20.3703 188.232 20.1037 187.324 20.1037C186.33 20.1037 185.502 20.377 184.841 20.9236C184.18 21.4701 183.753 22.2166 183.573 23.1564H183.566Z" fill="#1D1D1B"/>
<path d="M202.979 17.6698C204.668 17.6698 206.13 18.3096 207.351 19.5827C208.56 20.8424 209.167 22.3821 209.167 24.2017C209.167 26.0213 208.56 27.5877 207.351 28.8408C206.143 30.1005 204.681 30.727 202.979 30.727C201.103 30.727 199.655 30.0338 198.626 28.6408V35.3661H195.943V17.9897H198.626V19.776C199.634 18.3696 201.09 17.6631 202.979 17.6631V17.6698ZM199.748 27.0545C200.496 27.801 201.43 28.1676 202.558 28.1676C203.687 28.1676 204.621 27.7943 205.369 27.0545C206.117 26.2946 206.49 25.3415 206.49 24.2017C206.49 23.062 206.117 22.1155 205.369 21.369C204.621 20.6091 203.687 20.2292 202.558 20.2292C201.43 20.2292 200.496 20.6091 199.748 21.369C199 22.1155 198.626 23.0553 198.626 24.2017C198.626 25.3482 199 26.2813 199.748 27.0545Z" fill="#1D1D1B"/>
<path d="M217.471 30.7274C215.595 30.7274 214.033 30.1008 212.772 28.8411C211.53 27.568 210.909 26.0217 210.909 24.2021C210.909 22.3824 211.53 20.8028 212.772 19.563C214.033 18.3033 215.595 17.6768 217.471 17.6768C218.68 17.6768 219.781 17.97 220.776 18.5432C221.77 19.1231 222.518 19.903 223.012 20.8761L220.702 22.2158C220.422 21.6226 219.995 21.156 219.421 20.8161C218.846 20.4762 218.192 20.3095 217.445 20.3095C216.35 20.3095 215.429 20.6828 214.688 21.4293C213.96 22.1892 213.593 23.1156 213.593 24.2087C213.593 25.3018 213.96 26.2283 214.688 26.9882C215.435 27.7347 216.356 28.1079 217.445 28.1079C218.172 28.1079 218.833 27.9346 219.421 27.6014C220.008 27.2614 220.455 26.7949 220.749 26.2016L223.059 27.5147C222.525 28.5078 221.764 29.2943 220.762 29.8742C219.761 30.4541 218.66 30.7407 217.471 30.7407V30.7274Z" fill="#1D1D1B"/>
<path d="M223.566 17.9961H234.381V20.5756H230.329V30.4068H227.645V20.5756H223.566V17.9961Z" fill="#1D1D1B"/>
<path d="M244.795 24.0282C246.023 24.608 246.637 25.5612 246.637 26.8809C246.637 27.9407 246.277 28.7938 245.556 29.4404C244.835 30.0869 243.834 30.4068 242.559 30.4068H236.197V17.9961H242.065C243.326 17.9961 244.308 18.3094 245.022 18.9359C245.736 19.5624 246.09 20.3956 246.09 21.4154C246.09 22.5885 245.656 23.4616 244.795 24.0215V24.0282ZM241.864 20.2756H238.754V23.0284H241.864C242.959 23.0284 243.507 22.5685 243.507 21.6353C243.507 20.7022 242.959 20.269 241.864 20.269V20.2756ZM238.754 28.074H242.312C243.44 28.074 244.001 27.5874 244.001 26.6076C244.001 26.1744 243.854 25.8411 243.553 25.6012C243.253 25.3612 242.839 25.2413 242.312 25.2413H238.754V28.074Z" fill="#1D1D1B"/>
<path d="M254.688 30.7274C252.845 30.7274 251.297 30.1008 250.042 28.8411C248.767 27.568 248.126 26.0217 248.126 24.2021C248.126 22.3824 248.767 20.8361 250.042 19.563C251.303 18.3033 252.852 17.6768 254.688 17.6768C256.524 17.6768 258.079 18.3033 259.334 19.563C260.609 20.8361 261.25 22.3824 261.25 24.2021C261.25 26.0217 260.609 27.568 259.334 28.8411C258.072 30.1008 256.524 30.7274 254.688 30.7274ZM250.809 24.2021C250.809 25.3285 251.183 26.2616 251.931 27.0081C252.679 27.7547 253.6 28.1279 254.688 28.1279C255.776 28.1279 256.704 27.7547 257.445 27.0081C258.193 26.2616 258.566 25.3285 258.566 24.2021C258.566 23.0756 258.193 22.1425 257.445 21.396C256.697 20.6495 255.776 20.2762 254.688 20.2762C253.6 20.2762 252.672 20.6495 251.931 21.396C251.183 22.1425 250.809 23.0756 250.809 24.2021Z" fill="#1D1D1B"/>
<path d="M276.938 17.6698C278.627 17.6698 280.089 18.3096 281.31 19.5827C282.519 20.8424 283.126 22.3821 283.126 24.2017C283.126 26.0213 282.519 27.5877 281.31 28.8408C280.102 30.1005 278.64 30.727 276.938 30.727C275.062 30.727 273.613 30.0338 272.585 28.6408V35.3661H269.902V17.9897H272.585V19.776C273.593 18.3696 275.049 17.6631 276.938 17.6631V17.6698ZM273.707 27.0545C274.455 27.801 275.389 28.1676 276.517 28.1676C277.646 28.1676 278.58 27.7943 279.328 27.0545C280.075 26.2946 280.449 25.3415 280.449 24.2017C280.449 23.062 280.075 22.1155 279.328 21.369C278.58 20.6091 277.646 20.2292 276.517 20.2292C275.389 20.2292 274.455 20.6091 273.707 21.369C272.959 22.1155 272.585 23.0553 272.585 24.2017C272.585 25.3482 272.959 26.2813 273.707 27.0545Z" fill="#1D1D1B"/>
<path d="M291.431 30.7274C289.588 30.7274 288.039 30.1008 286.784 28.8411C285.509 27.568 284.868 26.0217 284.868 24.2021C284.868 22.3824 285.509 20.8361 286.784 19.563C288.046 18.3033 289.595 17.6768 291.431 17.6768C293.266 17.6768 294.822 18.3033 296.077 19.563C297.352 20.8361 297.993 22.3824 297.993 24.2021C297.993 26.0217 297.352 27.568 296.077 28.8411C294.815 30.1008 293.266 30.7274 291.431 30.7274ZM287.552 24.2021C287.552 25.3285 287.926 26.2616 288.673 27.0081C289.421 27.7547 290.342 28.1279 291.431 28.1279C292.519 28.1279 293.447 27.7547 294.188 27.0081C294.935 26.2616 295.309 25.3285 295.309 24.2021C295.309 23.0756 294.935 22.1425 294.188 21.396C293.44 20.6495 292.519 20.2762 291.431 20.2762C290.342 20.2762 289.414 20.6495 288.673 21.396C287.926 22.1425 287.552 23.0756 287.552 24.2021Z" fill="#1D1D1B"/>
<path d="M306.918 24.0484C308.247 24.6416 308.908 25.6281 308.908 27.0011C308.908 28.0742 308.467 28.9674 307.593 29.6673C306.718 30.3671 305.523 30.7204 304.014 30.7204C301.511 30.7204 299.822 29.7272 298.941 27.741L301.131 26.4479C301.578 27.6877 302.546 28.3075 304.041 28.3075C304.735 28.3075 305.283 28.1609 305.683 27.8743C306.084 27.5877 306.277 27.2011 306.277 26.7212C306.277 26.288 306.117 25.948 305.803 25.6881C305.49 25.4348 305.049 25.3015 304.488 25.3015H302.726V22.942H304.041C304.588 22.942 305.016 22.8153 305.323 22.5554C305.63 22.3021 305.783 21.9489 305.783 21.5023C305.783 21.0557 305.61 20.7224 305.263 20.4492C304.916 20.1759 304.448 20.0426 303.868 20.0426C302.626 20.0426 301.765 20.5891 301.284 21.6822L299.094 20.4425C300.009 18.5896 301.578 17.6631 303.821 17.6631C305.216 17.6631 306.317 18.023 307.125 18.7295C307.953 19.4227 308.367 20.2759 308.367 21.289C308.367 22.5287 307.886 23.4485 306.925 24.0418L306.918 24.0484Z" fill="#1D1D1B"/>
<path d="M319.702 24.0282C320.93 24.608 321.544 25.5612 321.544 26.8809C321.544 27.9407 321.184 28.7938 320.463 29.4404C319.742 30.0869 318.741 30.4068 317.466 30.4068H311.104V17.9961H316.972C318.233 17.9961 319.215 18.3094 319.929 18.9359C320.643 19.5624 320.997 20.3956 320.997 21.4154C320.997 22.5885 320.563 23.4616 319.702 24.0215V24.0282ZM316.765 20.2756H313.654V23.0284H316.765C317.859 23.0284 318.407 22.5685 318.407 21.6353C318.407 20.7022 317.859 20.269 316.765 20.269V20.2756ZM313.661 28.074H317.219C318.347 28.074 318.908 27.5874 318.908 26.6076C318.908 26.1744 318.761 25.8411 318.46 25.6012C318.16 25.3612 317.746 25.2413 317.219 25.2413H313.661V28.074Z" fill="#1D1D1B"/>
<path d="M326.364 25.8611L332.726 17.9961H334.789V30.4068H332.152V22.5152L325.79 30.4068H323.728V17.9961H326.364V25.8611Z" fill="#1D1D1B"/>
<path d="M336.578 17.9961H347.392V20.5756H343.34V30.4068H340.657V20.5756H336.578V17.9961Z" fill="#1D1D1B"/>
<path d="M354.529 24.0748L360.196 30.4068H356.992L351.898 24.6747V30.4068H349.215V17.9961H351.898V23.4816L356.718 17.9961H360.003L354.535 24.0748H354.529Z" fill="#1D1D1B"/>
<path d="M366.958 27.0284L370.143 17.9902H373L368.227 30.8009C367.646 32.3739 366.832 33.547 365.79 34.3268C364.749 35.1067 363.534 35.4533 362.159 35.3666V32.8605C363.747 32.9604 364.849 32.1673 365.463 30.481L365.536 30.3077L360.316 17.9969H363.173L366.952 27.035L366.958 27.0284Z" fill="#1D1D1B"/>
<path d="M111.67 41.9521H120.001V44.5316H114.36V54.3629H111.676V41.9521H111.67Z" fill="#1D1D1B"/>
<path d="M128.846 41.6307C130.535 41.6307 131.997 42.2706 133.218 43.5436C134.427 44.8034 135.034 46.343 135.034 48.1627C135.034 49.9823 134.427 51.5486 133.218 52.8017C132.01 54.0614 130.548 54.688 128.846 54.688C126.97 54.688 125.521 53.9948 124.493 52.6017V59.327H121.81V41.9506H124.493V43.7369C125.501 42.3305 126.957 41.624 128.846 41.624V41.6307ZM125.615 51.0154C126.363 51.7619 127.297 52.1285 128.425 52.1285C129.554 52.1285 130.488 51.7552 131.236 51.0154C131.983 50.2556 132.357 49.3024 132.357 48.1627C132.357 47.0229 131.983 46.0764 131.236 45.3299C130.488 44.5701 129.554 44.1902 128.425 44.1902C127.297 44.1902 126.363 44.5701 125.615 45.3299C124.867 46.0764 124.493 47.0162 124.493 48.1627C124.493 49.3091 124.867 50.2422 125.615 51.0154Z" fill="#1D1D1B"/>
<path d="M143.339 54.6903C141.497 54.6903 139.948 54.0637 138.693 52.804C137.418 51.5309 136.777 49.9846 136.777 48.165C136.777 46.3453 137.418 44.799 138.693 43.5259C139.954 42.2662 141.503 41.6396 143.339 41.6396C145.175 41.6396 146.73 42.2662 147.985 43.5259C149.26 44.799 149.901 46.3453 149.901 48.165C149.901 49.9846 149.26 51.5309 147.985 52.804C146.724 54.0637 145.175 54.6903 143.339 54.6903ZM139.46 48.1583C139.46 49.2847 139.834 50.2179 140.582 50.9644C141.33 51.7109 142.251 52.0841 143.339 52.0841C144.427 52.0841 145.355 51.7109 146.096 50.9644C146.844 50.2179 147.218 49.2847 147.218 48.1583C147.218 47.0319 146.844 46.0987 146.096 45.3522C145.348 44.6057 144.427 44.2324 143.339 44.2324C142.251 44.2324 141.323 44.6057 140.582 45.3522C139.834 46.0987 139.46 47.0319 139.46 48.1583Z" fill="#1D1D1B"/>
<path d="M161.69 41.9521H164.427V54.3629H161.817V46.1979L158.239 51.8834H157.918L154.36 46.2246V54.3696H151.75V41.9588H154.487L158.092 47.691L161.697 41.9588L161.69 41.9521Z" fill="#1D1D1B"/>
<path d="M176.83 43.7194V41.9598H179.514V54.3705H176.83V52.5842C175.822 53.9906 174.367 54.6971 172.478 54.6971C170.769 54.6971 169.314 54.0706 168.105 52.8108C166.897 51.5511 166.29 50.0047 166.29 48.1718C166.29 46.3388 166.897 44.7858 168.105 43.5328C169.314 42.273 170.776 41.6465 172.478 41.6465C174.367 41.6465 175.816 42.3397 176.83 43.7327V43.7194ZM170.095 51.0179C170.842 51.7644 171.777 52.131 172.905 52.131C174.033 52.131 174.968 51.7577 175.716 51.0179C176.463 50.258 176.837 49.3049 176.837 48.1651C176.837 47.0254 176.463 46.0789 175.716 45.3324C174.968 44.5725 174.033 44.1926 172.905 44.1926C171.777 44.1926 170.842 44.5725 170.095 45.3324C169.347 46.0789 168.973 47.0187 168.973 48.1651C168.973 49.3116 169.347 50.2447 170.095 51.0179Z" fill="#1D1D1B"/>
<path d="M193.586 41.9521V51.8301H195.249V57.6889H192.612V54.3629H184.087V57.6889H181.45V51.8301H182.966C183.727 50.7703 184.107 49.2773 184.107 47.3377V41.9521H193.58H193.586ZM185.93 51.8368H190.95V44.4116H186.751V47.3377C186.751 49.124 186.477 50.6237 185.93 51.8301V51.8368Z" fill="#1D1D1B"/>
<path d="M203.479 41.9521H214.294V44.5316H210.242V54.3629H207.558V44.5316H203.479V41.9521Z" fill="#1D1D1B"/>
<path d="M225.456 43.7194V41.9598H228.139V54.3705H225.456V52.5842C224.448 53.9906 222.992 54.6971 221.103 54.6971C219.394 54.6971 217.939 54.0706 216.731 52.8108C215.522 51.5511 214.915 50.0047 214.915 48.1718C214.915 46.3388 215.522 44.7858 216.731 43.5328C217.939 42.273 219.401 41.6465 221.103 41.6465C222.992 41.6465 224.441 42.3397 225.456 43.7327V43.7194ZM218.713 51.0179C219.461 51.7644 220.395 52.131 221.524 52.131C222.652 52.131 223.586 51.7577 224.334 51.0179C225.082 50.258 225.456 49.3049 225.456 48.1651C225.456 47.0254 225.082 46.0789 224.334 45.3324C223.586 44.5725 222.652 44.1926 221.524 44.1926C220.395 44.1926 219.461 44.5725 218.713 45.3324C217.966 46.0789 217.592 47.0187 217.592 48.1651C217.592 49.3116 217.966 50.2447 218.713 51.0179Z" fill="#1D1D1B"/>
<path d="M236.33 41.9521H247.145V44.5316H243.093V54.3629H240.409V44.5316H236.33V41.9521Z" fill="#1D1D1B"/>
<path d="M260.469 49.3026H250.576C250.776 50.2291 251.224 50.9489 251.931 51.4621C252.639 51.9754 253.507 52.2287 254.555 52.2287C255.963 52.2287 257.031 51.7154 257.759 50.689L259.969 51.982C258.76 53.7883 256.945 54.6881 254.521 54.6881C252.519 54.6881 250.883 54.0749 249.622 52.8485C248.38 51.6088 247.759 50.0424 247.759 48.1562C247.759 46.2699 248.373 44.7702 249.601 43.5171C250.81 42.2574 252.385 41.6309 254.328 41.6309C256.137 41.6309 257.626 42.2707 258.8 43.5438C259.975 44.8169 260.563 46.3632 260.563 48.1828C260.563 48.5161 260.529 48.8893 260.463 49.2959L260.469 49.3026ZM250.549 47.1164H257.859C257.679 46.1433 257.265 45.3901 256.631 44.8569C255.99 44.3303 255.216 44.0637 254.308 44.0637C253.313 44.0637 252.485 44.337 251.824 44.8835C251.164 45.4301 250.736 46.1766 250.556 47.1164H250.549Z" fill="#1D1D1B"/>
<path d="M269.802 41.6307C271.491 41.6307 272.953 42.2706 274.174 43.5436C275.383 44.8034 275.99 46.343 275.99 48.1627C275.99 49.9823 275.383 51.5486 274.174 52.8017C272.966 54.0614 271.504 54.688 269.802 54.688C267.926 54.688 266.477 53.9948 265.449 52.6017V59.327H262.766V41.9506H265.449V43.7369C266.457 42.3305 267.913 41.624 269.802 41.624V41.6307ZM266.571 51.0154C267.318 51.7619 268.253 52.1285 269.381 52.1285C270.509 52.1285 271.444 51.7552 272.192 51.0154C272.939 50.2556 273.313 49.3024 273.313 48.1627C273.313 47.0229 272.939 46.0764 272.192 45.3299C271.444 44.5701 270.509 44.1902 269.381 44.1902C268.253 44.1902 267.318 44.5701 266.571 45.3299C265.823 46.0764 265.449 47.0162 265.449 48.1627C265.449 49.3091 265.823 50.2422 266.571 51.0154Z" fill="#1D1D1B"/>
<path d="M281.064 49.824L287.425 41.959H289.488V54.3697H286.851V46.478L280.49 54.3697H278.427V41.959H281.064V49.824Z" fill="#1D1D1B"/>
<path d="M291.284 41.9521H302.098V44.5316H298.046V54.3629H295.363V44.5316H291.284V41.9521Z" fill="#1D1D1B"/>
<path d="M309.281 54.6903C307.439 54.6903 305.89 54.0637 304.635 52.804C303.36 51.5309 302.719 49.9846 302.719 48.165C302.719 46.3453 303.36 44.799 304.635 43.5259C305.897 42.2662 307.446 41.6396 309.281 41.6396C311.117 41.6396 312.673 42.2662 313.928 43.5259C315.203 44.799 315.843 46.3453 315.843 48.165C315.843 49.9846 315.203 51.5309 313.928 52.804C312.666 54.0637 311.117 54.6903 309.281 54.6903ZM305.403 48.1583C305.403 49.2847 305.777 50.2179 306.524 50.9644C307.272 51.7109 308.193 52.0841 309.281 52.0841C310.369 52.0841 311.297 51.7109 312.038 50.9644C312.786 50.2179 313.16 49.2847 313.16 48.1583C313.16 47.0319 312.786 46.0987 312.038 45.3522C311.291 44.6057 310.369 44.2324 309.281 44.2324C308.193 44.2324 307.265 44.6057 306.524 45.3522C305.777 46.0987 305.403 47.0319 305.403 48.1583Z" fill="#1D1D1B"/>
<path d="M325.316 41.6307C327.005 41.6307 328.467 42.2706 329.689 43.5436C330.897 44.8034 331.504 46.343 331.504 48.1627C331.504 49.9823 330.897 51.5486 329.689 52.8017C328.48 54.0614 327.018 54.688 325.316 54.688C323.44 54.688 321.992 53.9948 320.964 52.6017V59.327H318.28V41.9506H320.964V43.7369C321.972 42.3305 323.427 41.624 325.316 41.624V41.6307ZM322.085 51.0154C322.833 51.7619 323.767 52.1285 324.896 52.1285C326.024 52.1285 326.958 51.7552 327.706 51.0154C328.454 50.2556 328.827 49.3024 328.827 48.1627C328.827 47.0229 328.454 46.0764 327.706 45.3299C326.958 44.5701 326.024 44.1902 324.896 44.1902C323.767 44.1902 322.833 44.5701 322.085 45.3299C321.337 46.0764 320.964 47.0162 320.964 48.1627C320.964 49.3091 321.337 50.2422 322.085 51.0154Z" fill="#1D1D1B"/>
<path d="M336.478 39.5999C336.144 39.9331 335.75 40.0998 335.283 40.0998C334.815 40.0998 334.415 39.9331 334.068 39.5999C333.734 39.2533 333.574 38.8467 333.574 38.3868C333.574 37.9269 333.741 37.527 334.068 37.1937C334.401 36.8471 334.802 36.6738 335.283 36.6738C335.763 36.6738 336.171 36.8471 336.498 37.1937C336.831 37.527 336.998 37.9202 336.998 38.3868C336.998 38.8534 336.825 39.2533 336.478 39.5999ZM336.631 54.3635H333.948V41.9527H336.631V54.3635Z" fill="#1D1D1B"/>
<path d="M342.372 49.8233L348.734 41.9582H350.797V54.369H348.16V46.4773L341.798 54.369H339.735V41.9582H342.372V49.8233ZM348.734 40.2186H341.771V37.8857H348.734V40.2186Z" fill="#1D1D1B"/>
<path d="M118.779 70.246L122.584 61.0879H125.468L120.074 73.9985C118.746 77.1579 116.603 78.6509 113.632 78.4643V75.8115C114.607 75.9115 115.401 75.7648 116.009 75.3782C116.616 74.9917 117.097 74.3251 117.464 73.3787L111.67 61.0946H114.554L118.779 70.2526V70.246Z" fill="#1D1D1B"/>
<path d="M130.789 72.1324L136.456 78.4645H133.252L128.158 72.7323V78.4645H125.475V66.0537H128.158V71.5392L132.978 66.0537H136.263L130.795 72.1324H130.789Z" fill="#1D1D1B"/>
<path d="M145.715 65.7264C147.404 65.7264 148.866 66.3663 150.088 67.6393C151.296 68.8991 151.904 70.4387 151.904 72.2584C151.904 74.078 151.296 75.6443 150.088 76.8974C148.88 78.1571 147.418 78.7837 145.715 78.7837C143.839 78.7837 142.391 78.0905 141.363 76.6974V83.4227H138.679V66.0463H141.363V67.8326C142.371 66.4262 143.826 65.7197 145.715 65.7197V65.7264ZM142.484 75.1111C143.232 75.8576 144.167 76.2242 145.295 76.2242C146.423 76.2242 147.357 75.851 148.105 75.1111C148.853 74.3513 149.227 73.3981 149.227 72.2584C149.227 71.1186 148.853 70.1721 148.105 69.4256C147.357 68.6658 146.423 68.2859 145.295 68.2859C144.167 68.2859 143.232 68.6658 142.484 69.4256C141.737 70.1721 141.363 71.1119 141.363 72.2584C141.363 73.4048 141.737 74.3379 142.484 75.1111Z" fill="#1D1D1B"/>
<path d="M164.194 67.8131V66.0535H166.877V78.4643H164.194V76.678C163.186 78.0843 161.73 78.7908 159.841 78.7908C158.132 78.7908 156.677 78.1643 155.469 76.9046C154.26 75.6448 153.653 74.0985 153.653 72.2655C153.653 70.4326 154.26 68.8796 155.469 67.6265C156.677 66.3668 158.139 65.7402 159.841 65.7402C161.73 65.7402 163.179 66.4334 164.194 67.8265V67.8131ZM157.451 75.1116C158.199 75.8581 159.134 76.2247 160.262 76.2247C161.39 76.2247 162.324 75.8515 163.072 75.1116C163.82 74.3518 164.194 73.3986 164.194 72.2589C164.194 71.1191 163.82 70.1726 163.072 69.4261C162.324 68.6663 161.39 68.2864 160.262 68.2864C159.134 68.2864 158.199 68.6663 157.451 69.4261C156.704 70.1726 156.33 71.1125 156.33 72.2589C156.33 73.4053 156.704 74.3384 157.451 75.1116Z" fill="#1D1D1B"/>
<path d="M170.689 64.1876C170.408 64.4675 170.061 64.6075 169.647 64.6075C169.233 64.6075 168.886 64.4675 168.606 64.1876C168.305 63.8876 168.158 63.5344 168.158 63.1211C168.158 62.7079 168.305 62.3613 168.606 62.0813C168.886 61.7814 169.233 61.6348 169.647 61.6348C170.061 61.6348 170.408 61.7814 170.689 62.0813C170.989 62.3613 171.136 62.7079 171.136 63.1211C171.136 63.5344 170.989 63.8876 170.689 64.1876ZM173.345 78.4646H170.662V66.0538H173.345V78.4646ZM175.408 64.1876C175.128 64.4675 174.781 64.6075 174.367 64.6075C173.953 64.6075 173.599 64.4675 173.299 64.1876C173.018 63.8876 172.878 63.5344 172.878 63.1211C172.878 62.7079 173.018 62.3613 173.299 62.0813C173.599 61.7814 173.953 61.6348 174.367 61.6348C174.781 61.6348 175.128 61.7814 175.408 62.0813C175.709 62.3613 175.855 62.7079 175.855 63.1211C175.855 63.5344 175.709 63.8876 175.408 64.1876Z" fill="#1D1D1B"/>
<path d="M185.148 70.9927V66.0537H187.832V78.4645H185.148V73.5255H179.454V78.4645H176.77V66.0537H179.454V70.9927H185.148Z" fill="#1D1D1B"/>
<path d="M193.259 73.9187L199.621 66.0537H201.684V78.4645H199.047V70.5728L192.685 78.4645H190.622V66.0537H193.259V73.9187Z" fill="#1D1D1B"/>
</svg>
