<?xml version="1.0" standalone="no"?>
<!DOCTYPE svg PUBLIC "-//W3C//DTD SVG 20010904//EN"
 "http://www.w3.org/TR/2001/REC-SVG-20010904/DTD/svg10.dtd">
<svg version="1.0" xmlns="http://www.w3.org/2000/svg"
 width="1200.000000pt" height="1200.000000pt" viewBox="0 0 1200.000000 1200.000000"
 preserveAspectRatio="xMidYMid meet">

<g transform="translate(0.000000,1200.000000) scale(0.100000,-0.100000)"
fill="#B12B2B" stroke="#C5A059" stroke-width="15">
<path d="M5520 10468 c1 -40 5 -168 10 -285 l8 -212 41 -59 40 -60 -31 -6
c-17 -3 -50 -6 -74 -6 -51 0 -45 -18 -74 205 -12 88 -24 172 -28 187 -5 20
-50 57 -175 147 -92 67 -173 121 -180 121 -6 0 -181 -41 -386 -90 -206 -50
-376 -90 -378 -90 -2 0 -3 -8 -3 -17 0 -22 142 -523 153 -541 5 -7 63 -40 130
-73 67 -34 123 -62 125 -64 4 -3 172 -723 172 -738 0 -17 -237 -159 -341 -204
-108 -47 -206 -66 -273 -54 -120 22 -227 80 -331 181 -88 84 -140 112 -225
118 -88 6 -151 -21 -220 -94 -58 -61 -74 -94 -95 -194 -18 -84 -37 -133 -71
-177 -45 -59 -160 -104 -311 -123 -178 -22 -263 -86 -299 -224 -29 -112 21
-240 118 -300 98 -60 246 -42 317 39 l29 33 16 -81 c46 -237 69 -548 70 -947
0 -318 -8 -422 -44 -522 -18 -50 -19 -51 -19 -19 -2 94 -76 198 -157 220 -180
50 -353 -55 -379 -231 -10 -65 23 -162 76 -222 36 -41 143 -106 174 -106 20 0
95 -88 118 -138 20 -43 22 -64 22 -227 0 -172 1 -182 26 -236 16 -33 45 -71
71 -95 l46 -39 -28 -55 c-83 -166 -175 -443 -211 -640 -29 -162 -32 -426 -5
-569 60 -324 211 -597 480 -867 293 -293 692 -552 1249 -809 246 -114 295
-140 402 -211 128 -86 233 -196 310 -322 75 -123 125 -140 201 -70 l45 41 30
-29 c17 -16 42 -48 57 -71 27 -44 55 -55 66 -28 10 27 34 16 67 -30 34 -47
126 -125 149 -125 23 0 110 74 152 128 l40 54 22 -21 c31 -29 37 -27 68 22 15
23 40 55 57 71 l30 29 45 -41 c26 -24 55 -42 68 -42 40 0 83 35 128 106 152
239 283 338 709 535 565 262 953 512 1246 804 281 279 425 538 492 880 23 122
23 392 -1 530 -36 210 -110 447 -200 640 l-43 91 43 37 c23 20 55 63 71 95 28
56 28 60 28 237 0 162 2 185 21 226 35 74 79 116 169 159 105 50 156 105 186
199 56 180 -76 351 -270 351 -78 0 -121 -14 -168 -55 -48 -41 -70 -84 -81
-156 l-7 -54 -18 55 c-33 108 -41 208 -41 520 1 399 24 709 71 948 l16 83 28
-34 c68 -82 218 -101 317 -41 97 60 147 188 118 300 -35 134 -123 203 -278
219 -250 26 -358 99 -393 263 -31 143 -43 169 -114 245 -58 62 -104 82 -191
82 -101 0 -160 -29 -263 -129 -57 -55 -99 -86 -160 -116 -110 -54 -180 -66
-276 -46 -77 16 -245 93 -361 165 -36 22 -80 48 -97 58 -18 9 -33 23 -33 30 0
15 168 734 172 738 2 2 58 30 125 64 67 33 126 69 131 78 13 24 152 516 152
535 0 9 -12 19 -27 23 -122 31 -731 175 -741 175 -7 0 -88 -54 -180 -121 -123
-89 -169 -128 -174 -147 -4 -15 -16 -99 -28 -187 -29 -223 -23 -205 -74 -205
-24 0 -57 3 -74 6 l-31 6 40 59 40 59 9 213 c5 116 10 245 10 285 l0 72 -480
0 -480 0 0 -72z m80 -93 l0 -125 110 0 110 0 1 118 c1 64 1 120 0 125 0 4 6 7
14 7 12 0 14 -22 13 -126 l-1 -126 252 1 c138 1 251 -2 251 -6 0 -5 -41 -9
-92 -9 l-92 1 3 -115 c1 -63 4 -116 6 -118 5 -5 206 -4 211 1 3 2 5 115 5 251
1 242 1 246 21 246 21 0 21 -2 14 -252 l-8 -253 -30 -47 c-16 -27 -32 -48 -35
-48 -3 0 2 12 12 26 28 44 16 52 -85 53 -54 1 -98 -3 -105 -9 -15 -12 -42
-146 -32 -157 11 -10 151 -6 155 5 1 5 9 18 16 28 13 17 14 17 9 -7 -6 -32 3
-35 144 -45 l102 -7 6 39 c11 67 13 70 14 27 0 -24 6 -43 12 -43 6 0 62 32
125 71 77 48 115 77 119 92 25 117 31 197 14 197 -6 0 -61 -29 -124 -65 -62
-36 -116 -65 -119 -65 -3 0 -6 10 -5 23 0 12 3 16 6 10 8 -21 19 -16 134 52
61 36 114 65 119 65 11 0 14 13 35 117 9 46 15 91 13 100 -4 24 10 43 30 43 9
0 68 -12 130 -26 89 -21 110 -29 98 -38 -18 -14 -63 -223 -50 -235 5 -4 45
-15 89 -25 44 -10 139 -31 211 -48 72 -17 138 -29 146 -25 10 3 23 45 39 121
22 107 30 129 42 109 3 -5 -14 -75 -38 -158 -26 -94 -44 -141 -46 -126 -3 21
-14 28 -76 44 -39 11 -78 17 -85 14 -15 -5 -72 -180 -65 -200 2 -6 23 -16 48
-23 l44 -11 -65 1 c-36 1 -69 6 -75 12 -10 11 -371 84 -416 84 -31 0 -241
-118 -236 -133 2 -6 104 -29 226 -51 l223 -40 42 24 c27 15 37 18 28 7 -19
-23 -10 -32 45 -47 27 -7 49 -14 51 -16 3 -2 -163 -720 -173 -751 -3 -8 -27
-2 -77 21 -275 126 -531 28 -584 -224 -34 -163 21 -304 140 -356 26 -11 -58
-13 -564 -13 -506 0 -590 2 -564 13 111 49 170 183 145 334 -43 266 -307 376
-589 247 -50 -24 -74 -30 -77 -22 -2 7 -42 176 -89 377 -47 201 -90 366 -94
368 -5 1 -18 9 -28 18 -14 10 -8 10 19 -3 38 -17 39 -17 195 23 85 22 157 45
159 51 5 14 -141 123 -164 123 -10 0 -92 -19 -183 -43 -110 -29 -165 -48 -165
-57 0 -7 27 -28 60 -46 33 -19 57 -34 53 -34 -5 0 -176 83 -195 95 -7 4 -141
491 -137 497 9 15 34 8 28 -7 -7 -16 34 -205 47 -219 12 -13 179 24 186 41 3
7 -6 59 -19 116 -23 98 -25 102 -53 107 -26 5 -23 7 28 19 32 7 61 10 64 7 4
-3 -4 -6 -16 -6 -12 0 -24 -7 -28 -16 -8 -21 49 -215 65 -221 7 -3 93 13 190
36 97 23 192 44 210 48 19 3 36 12 39 20 10 25 -20 215 -34 220 -8 3 -102 -13
-210 -36 -107 -23 -197 -41 -199 -38 -2 2 89 25 202 52 216 52 243 52 236 6
-2 -12 4 -58 13 -104 21 -104 24 -117 35 -117 5 0 58 -29 119 -65 115 -68 126
-73 134 -52 3 6 6 2 6 -10 1 -13 -2 -23 -5 -23 -3 0 -57 29 -119 65 -63 36
-118 65 -124 65 -6 0 -12 -17 -13 -37 l-1 -38 -4 33 c-3 18 -11 36 -19 39 -20
7 -163 -17 -171 -29 -10 -17 29 -220 44 -225 8 -3 46 3 86 13 l72 19 6 40 c5
34 6 36 8 10 1 -16 5 -34 9 -40 10 -14 229 -145 242 -145 5 0 11 19 11 43 1
43 3 40 14 -27 l6 -39 102 7 c123 9 147 14 147 33 0 8 -21 46 -47 86 l-48 72
-6 135 c-4 74 -7 190 -8 258 -1 102 1 122 14 122 13 0 15 -21 15 -125z m195
-5 l0 -95 -73 -3 c-46 -2 -79 1 -88 9 -19 15 -20 175 -1 182 6 2 46 4 87 3
l75 -1 0 -95z m559 94 c13 -5 16 -23 16 -89 0 -55 -4 -86 -13 -93 -8 -7 -94
-10 -247 -9 l-235 2 -3 83 c-2 53 1 89 9 98 9 11 55 14 234 14 123 0 230 -3
239 -6z m-1304 -150 c13 -89 9 -103 -28 -104 -7 0 -89 -18 -183 -41 -94 -22
-173 -38 -176 -35 -7 7 -53 169 -49 173 4 5 386 91 407 92 14 1 19 -16 29 -85z
m189 -27 l111 -77 0 -56 0 -56 -32 20 c-18 11 -64 38 -103 60 l-70 39 -16 77
c-9 42 -13 76 -8 74 4 -2 58 -38 118 -81z m1632 7 l-16 -77 -70 -39 c-38 -22
-85 -49 -102 -60 l-33 -20 0 56 0 55 113 80 c61 45 115 81 118 81 4 0 -1 -34
-10 -76z m528 21 c106 -24 195 -46 198 -48 2 -3 -6 -46 -17 -96 l-22 -92 -31
6 c-33 7 -187 42 -309 71 -38 9 -68 19 -68 23 0 5 10 48 35 159 3 12 9 22 13
22 4 0 95 -20 201 -45z m-2902 -1 c-3 -3 -12 -4 -19 -1 -8 3 -5 6 6 6 11 1 17
-2 13 -5z m-40 -10 c-3 -3 -12 -4 -19 -1 -8 3 -5 6 6 6 11 1 17 -2 13 -5z
m-40 -10 c-3 -3 -12 -4 -19 -1 -8 3 -5 6 6 6 11 1 17 -2 13 -5z m129 -31 c3
-16 13 -54 21 -87 8 -32 12 -60 10 -63 -7 -7 -129 -34 -134 -29 -8 7 -43 169
-39 174 6 5 102 30 123 31 7 1 15 -11 19 -26z m1834 -23 c0 -5 -2 -10 -4 -10
-3 0 -8 5 -11 10 -3 6 -1 10 4 10 6 0 11 -4 11 -10z m-12 -113 c2 -44 -2 -84
-7 -91 -11 -13 -139 -15 -159 -2 -13 8 -17 157 -5 170 4 4 43 5 88 4 l80 -3 3
-78z m-1274 -19 c3 -18 8 -56 12 -84 l6 -52 -57 -17 c-31 -9 -59 -14 -61 -12
-4 4 -34 151 -34 167 0 9 67 27 106 29 17 1 23 -6 28 -31z m202 -57 l71 -42 7
-75 c4 -42 6 -78 4 -80 -2 -1 -33 16 -70 39 -36 23 -79 49 -96 58 -26 15 -30
24 -36 75 -4 33 -10 70 -13 83 l-6 25 34 -21 c19 -11 66 -39 105 -62z m1532
-4 l-11 -78 -100 -60 -100 -60 6 53 c4 29 7 65 7 80 0 23 13 34 103 86 56 33
103 59 104 58 1 -1 -3 -36 -9 -79z m-1691 -4 c-3 -10 -5 -2 -5 17 0 19 2 27 5
18 2 -10 2 -26 0 -35z m2371 -35 c17 -5 32 -12 32 -14 0 -9 -40 -147 -44 -151
-4 -4 -115 23 -122 30 -2 2 5 32 17 68 11 35 22 70 25 77 4 13 25 11 92 -10z
m59 -60 c-3 -8 -6 -5 -6 6 -1 11 2 17 5 13 3 -3 4 -12 1 -19z m-2160 -20 c-3
-7 -5 -2 -5 12 0 14 2 19 5 13 2 -7 2 -19 0 -25z m1190 0 c-3 -7 -5 -2 -5 12
0 14 2 19 5 13 2 -7 2 -19 0 -25z m-267 17 c5 -3 -4 -27 -23 -55 -32 -49 -33
-50 -84 -50 -29 0 -53 3 -53 8 0 18 23 87 30 92 12 8 119 12 130 5z m742 -87
c93 -18 168 -35 168 -38 -1 -3 -35 -25 -76 -49 l-76 -44 -182 32 c-100 17
-185 31 -189 31 -22 0 0 22 46 45 28 15 61 34 72 41 28 20 50 18 237 -18z
m-2094 -60 l56 -41 -134 -35 -133 -35 -76 38 c-47 24 -70 40 -61 43 37 14 257
71 274 71 11 1 44 -18 74 -41z m2489 16 c-3 -3 -12 -4 -19 -1 -8 3 -5 6 6 6
11 1 17 -2 13 -5z m63 -3 c0 -5 -8 -17 -17 -27 -16 -15 -17 -15 -24 2 -4 14
-1 21 15 26 11 3 22 6 24 7 1 1 2 -3 2 -8z m-117 -20 c27 -6 26 -7 -40 -50
-82 -54 -88 -55 -138 -38 l-39 14 69 41 c69 41 92 46 148 33z m-2040 -871 c59
-29 122 -96 148 -156 30 -66 36 -169 14 -238 -31 -99 -130 -166 -227 -153
-125 17 -193 130 -157 261 17 61 58 96 113 96 40 0 51 -5 85 -39 21 -21 44
-56 51 -77 17 -53 28 -63 45 -40 25 33 29 100 10 160 -29 92 -125 166 -215
166 -79 0 -169 -41 -421 -191 -198 -118 -305 -167 -407 -184 -136 -24 -238 5
-335 96 l-52 48 70 -34 c184 -90 336 -62 660 119 55 31 107 60 115 65 170 108
239 132 365 128 71 -2 100 -8 138 -27z m1553 5 c41 -14 113 -49 161 -79 242
-147 407 -225 536 -252 94 -20 186 -6 282 41 l69 35 -43 -44 c-121 -123 -295
-141 -500 -53 -46 20 -158 81 -250 136 -252 150 -342 191 -421 191 -90 0 -186
-74 -215 -166 -19 -60 -15 -127 10 -160 17 -23 26 -15 49 48 10 27 33 61 53
79 33 28 41 31 87 26 66 -6 102 -45 112 -124 12 -102 -19 -167 -100 -208 -82
-41 -161 -29 -231 36 -104 96 -99 297 11 418 36 41 91 75 144 92 56 17 170 10
246 -16z m-3136 -67 c54 -27 106 -78 183 -180 102 -135 212 -197 352 -198 149
0 269 48 569 228 248 149 345 178 431 129 48 -27 92 -88 101 -142 l7 -40 -41
46 c-50 56 -88 73 -146 67 -80 -9 -130 -70 -142 -171 -12 -102 32 -193 114
-237 37 -19 33 -19 -804 -20 -661 0 -844 -3 -852 -12 -6 -9 -11 -669 -13
-1913 -3 -1472 -7 -1893 -16 -1867 -17 50 -63 103 -113 131 -52 29 -135 32
-192 8 -53 -22 -115 -90 -149 -160 -36 -76 -37 -51 -4 74 36 139 59 199 137
356 63 127 70 148 70 201 l0 58 60 13 c44 9 69 21 99 48 50 46 65 71 49 87 -8
8 -19 2 -43 -25 -71 -80 -142 -97 -226 -52 -29 15 -60 38 -68 50 -15 22 -15
22 34 16 58 -6 146 16 203 52 46 29 56 43 42 57 -8 8 -22 4 -49 -15 -128 -88
-293 -68 -293 36 0 8 27 12 88 12 76 0 93 3 132 26 60 36 87 66 72 81 -8 8
-25 1 -67 -28 -47 -32 -66 -39 -119 -42 -77 -5 -106 8 -106 47 0 37 5 40 51
30 26 -6 55 -6 81 2 74 20 143 78 119 102 -7 7 -21 0 -45 -21 -50 -43 -105
-59 -156 -43 -37 11 -40 15 -40 46 0 35 1 35 44 35 24 0 59 6 77 14 36 15 99
70 99 85 0 24 -24 21 -53 -7 -45 -42 -69 -52 -125 -52 -47 0 -49 1 -59 35 -11
34 -11 35 18 35 15 0 53 9 83 21 83 31 165 131 119 146 -6 2 -25 -16 -42 -40
-35 -52 -85 -79 -157 -85 -49 -4 -51 -3 -64 27 -7 17 -16 31 -21 31 -5 0 -9 5
-9 10 0 6 13 10 29 10 16 0 60 9 97 21 60 19 77 30 140 93 82 82 131 173 160
301 17 72 19 127 19 555 0 502 -4 574 -50 805 -53 264 -148 473 -246 539 l-50
33 45 13 c41 11 48 10 81 -10 38 -24 79 -72 89 -107 11 -35 34 -49 53 -31 23
23 -1 79 -59 141 -26 28 -46 53 -44 55 9 8 48 -11 92 -45 42 -31 48 -33 62
-19 14 13 13 17 -1 39 -9 14 -32 35 -51 47 -36 21 -44 34 -28 44 17 10 92 -17
123 -45 37 -33 42 -34 59 -14 20 24 -11 60 -79 92 -72 35 -69 54 11 61 39 3
68 -2 107 -18 50 -19 56 -20 70 -5 15 15 14 18 -8 36 -33 27 -127 52 -173 46
-32 -4 -38 -3 -34 10 3 8 6 18 6 23 0 5 29 23 65 41 86 42 149 39 219 -11 41
-30 48 -32 62 -19 20 20 11 39 -34 70 -75 53 -140 61 -232 29 -30 -10 -56 -17
-58 -15 -2 2 14 28 37 58 82 112 184 141 301 85z m4583 18 c47 -11 107 -57
143 -110 18 -27 32 -51 31 -52 -1 -2 -27 6 -57 16 -92 32 -157 24 -232 -29
-45 -31 -54 -50 -34 -70 14 -13 21 -11 62 19 70 50 133 53 219 11 36 -18 65
-36 65 -41 0 -5 3 -15 6 -23 4 -13 -2 -14 -34 -10 -46 6 -140 -19 -173 -46
-22 -18 -23 -21 -8 -36 14 -15 20 -14 68 4 72 29 171 26 171 -4 0 -7 -25 -25
-55 -40 -31 -15 -63 -38 -72 -52 -15 -22 -15 -26 0 -40 14 -14 19 -13 54 15
47 38 107 56 123 37 8 -10 2 -18 -25 -35 -20 -12 -43 -33 -52 -47 -14 -22 -15
-26 -1 -39 14 -14 20 -12 62 19 86 67 121 62 52 -6 -55 -55 -81 -110 -65 -139
14 -25 30 -19 50 19 29 57 46 78 87 106 37 26 42 27 85 16 l46 -11 -47 -32
c-108 -75 -209 -312 -261 -617 -34 -198 -43 -387 -38 -819 5 -451 8 -480 74
-620 26 -55 55 -94 107 -146 63 -63 80 -74 140 -93 37 -12 81 -21 97 -21 16 0
29 -4 29 -10 0 -5 -4 -10 -9 -10 -5 0 -14 -14 -21 -31 -13 -30 -15 -31 -64
-27 -72 6 -122 33 -157 85 -17 24 -36 42 -42 40 -46 -15 36 -115 119 -146 30
-12 68 -21 83 -21 29 0 29 -1 18 -35 -10 -34 -12 -35 -59 -35 -56 0 -80 10
-125 52 -29 28 -53 31 -53 7 0 -15 63 -70 99 -85 18 -8 53 -14 77 -14 43 0 44
0 44 -34 0 -30 -4 -36 -34 -46 -48 -15 -98 -4 -158 37 -38 25 -54 31 -62 23
-17 -18 59 -78 121 -96 40 -12 61 -13 89 -5 46 13 54 8 54 -29 0 -40 -28 -53
-105 -48 -52 3 -73 10 -120 42 -40 26 -60 35 -68 27 -14 -14 2 -32 66 -73 48
-31 57 -33 139 -33 61 0 88 -4 88 -12 0 -104 -165 -124 -293 -36 -27 19 -41
23 -49 15 -38 -38 145 -120 243 -109 58 7 58 -7 1 -47 -98 -67 -179 -57 -259
33 -24 27 -35 33 -43 25 -16 -16 -1 -41 49 -87 30 -27 55 -39 101 -49 l61 -12
-6 -32 c-9 -51 10 -113 79 -256 67 -140 106 -243 131 -349 21 -90 18 -102 -10
-45 -51 105 -140 168 -236 168 -96 0 -178 -61 -210 -158 -12 -34 -14 248 -11
1855 1 1043 0 1906 -3 1919 l-5 22 -857 0 -856 0 43 23 c87 46 129 133 116
239 -22 171 -197 227 -297 94 l-31 -41 6 40 c9 53 53 115 101 142 93 53 186
21 489 -164 131 -81 274 -149 357 -173 90 -25 206 -26 275 -4 68 23 161 91
209 153 99 128 136 170 171 192 39 24 128 49 154 44 8 -2 28 -6 43 -9z m-5296
-621 c73 -31 103 -65 158 -179 108 -226 147 -430 167 -861 14 -314 1 -751 -26
-850 -27 -97 -71 -181 -128 -241 -79 -84 -114 -99 -228 -99 -85 0 -101 3 -150
28 -75 39 -116 81 -140 144 -24 65 -25 111 -4 161 54 131 223 180 339 100 81
-55 89 -199 16 -275 -18 -19 -33 -23 -77 -23 -50 0 -59 3 -90 34 -37 37 -43
69 -18 104 18 26 41 28 66 6 14 -14 20 -14 33 -4 21 17 19 27 -10 55 -47 48
-128 20 -156 -53 -35 -91 43 -191 157 -200 106 -9 209 57 257 166 55 123 62
191 62 612 0 379 -9 553 -41 779 -42 303 -108 468 -200 507 -71 30 -147 6
-179 -55 -21 -42 -19 -119 5 -158 22 -36 32 -40 49 -19 8 10 7 23 -5 52 -13
31 -14 45 -5 76 29 94 145 71 186 -37 23 -60 14 -105 -30 -143 -59 -52 -152
-60 -230 -20 -40 21 -60 44 -84 98 -58 129 14 275 154 311 37 9 109 2 152 -16z
m5320 -1892 c-2 -1787 -4 -1925 -20 -2023 -44 -257 -113 -475 -221 -695 -311
-634 -877 -1095 -1561 -1271 -217 -55 -330 -68 -595 -68 -265 0 -378 13 -595
68 -856 220 -1522 890 -1735 1746 -63 253 -63 256 -68 1070 -2 410 -1 1273 3
1918 l7 1172 2394 0 2394 0 -3 -1917z m733 1887 c102 -52 147 -184 99 -290
-32 -72 -71 -104 -149 -121 -81 -18 -188 37 -206 105 -17 69 53 176 116 176
46 0 68 -16 81 -58 9 -31 8 -45 -5 -76 -16 -38 -9 -66 15 -66 20 0 49 66 49
113 0 113 -91 176 -194 133 -126 -53 -204 -350 -237 -908 -16 -271 -7 -757 16
-858 46 -204 152 -310 299 -298 114 9 192 109 157 200 -28 73 -109 101 -156
53 -29 -28 -31 -38 -10 -55 13 -10 19 -10 33 4 23 20 41 20 64 -1 29 -26 23
-70 -16 -109 -31 -31 -40 -34 -90 -34 -44 0 -59 4 -77 23 -51 53 -65 157 -30
225 56 110 245 118 343 15 109 -114 54 -300 -110 -376 -68 -31 -220 -31 -277
-1 -94 51 -183 179 -220 319 -31 114 -43 629 -24 955 21 344 73 575 174 774
39 77 59 106 92 129 80 57 183 68 263 27z m-5889 -3057 c15 -40 -3 -99 -72
-235 -276 -545 -225 -1092 147 -1585 33 -43 118 -137 189 -209 307 -308 730
-568 1275 -784 287 -113 570 -294 680 -435 25 -31 52 -67 62 -79 l16 -21 24
22 c36 34 109 63 160 63 57 0 78 -7 78 -28 0 -78 83 -203 161 -243 39 -19 39
-19 77 0 21 11 56 39 79 63 38 42 83 137 83 177 0 56 168 34 238 -32 l24 -22
16 21 c10 12 37 48 62 79 111 142 385 317 690 440 177 72 242 101 420 190 678
338 1125 780 1286 1272 52 159 68 277 61 463 -8 231 -48 379 -170 635 -59 124
-71 159 -71 202 -1 85 17 87 54 7 98 -213 166 -425 202 -624 27 -151 28 -392
3 -535 -37 -211 -128 -424 -263 -615 -74 -105 -296 -334 -412 -426 -235 -187
-527 -366 -869 -531 -119 -58 -274 -133 -346 -168 -268 -130 -400 -241 -541
-453 -78 -117 -111 -125 -170 -38 -14 20 -30 36 -37 36 -6 0 -40 -29 -74 -65
-55 -58 -65 -64 -91 -59 -25 5 -35 0 -63 -32 -64 -71 -133 -134 -149 -134 -17
0 -84 61 -142 129 -33 39 -41 43 -68 37 -28 -5 -37 0 -93 59 -34 36 -67 65
-73 65 -7 0 -24 -16 -38 -35 -39 -51 -70 -69 -95 -56 -11 6 -43 46 -72 89 -72
107 -80 117 -162 200 -91 93 -215 177 -381 257 -604 291 -737 363 -996 539
-371 252 -620 516 -770 815 -180 361 -192 807 -31 1271 41 121 136 340 147
340 2 0 9 -12 15 -27z m122 -534 c77 -21 146 -111 147 -189 0 -56 -20 -111
-50 -142 -34 -34 -58 -38 -36 -6 26 37 20 93 -13 130 -27 30 -34 33 -88 33
-68 0 -114 -25 -152 -81 -42 -61 -53 -111 -53 -249 0 -211 50 -411 152 -615
27 -55 48 -100 46 -100 -2 0 -28 37 -57 83 -137 211 -219 555 -191 795 22 193
84 297 200 338 46 16 48 16 95 3z m5404 -16 c174 -81 218 -449 102 -828 -17
-55 -46 -132 -64 -172 -32 -69 -119 -213 -130 -213 -2 0 11 28 29 63 52 95
104 226 137 350 27 97 32 134 36 277 5 151 3 170 -16 221 -38 101 -118 157
-205 146 -84 -12 -125 -107 -73 -173 l22 -29 -35 20 c-71 41 -100 155 -61 240
49 107 155 147 258 98z m-5720 -205 c-3 -8 -6 -5 -6 6 -1 11 2 17 5 13 3 -3 4
-12 1 -19z m333 -8 c11 -11 20 -32 20 -47 -1 -69 -79 -102 -90 -38 -7 43 -34
39 -38 -6 -6 -76 86 -116 169 -73 41 21 87 80 99 126 6 24 12 47 14 53 1 5 6
-22 9 -61 24 -250 140 -611 277 -858 368 -661 982 -1107 1709 -1242 299 -55
602 -55 901 0 819 152 1509 712 1823 1481 79 192 151 468 169 650 3 27 5 24
20 -25 26 -85 92 -140 168 -140 56 0 103 44 98 92 -4 43 -31 44 -38 3 -4 -23
-11 -31 -32 -33 -32 -4 -58 29 -58 75 0 40 30 63 81 63 54 0 99 -35 133 -104
29 -57 30 -64 29 -190 -2 -212 -50 -399 -158 -611 -88 -174 -230 -383 -286
-423 -17 -12 -17 -11 0 30 40 91 36 168 -12 239 -33 49 -88 72 -159 67 -91 -7
-147 -60 -156 -146 -5 -60 15 -104 61 -132 42 -26 60 -25 93 3 30 26 26 49 -9
46 -52 -5 -58 0 -55 34 3 28 7 32 35 35 62 6 83 -76 41 -166 -26 -56 -187
-220 -298 -303 -233 -174 -429 -284 -733 -410 -327 -136 -592 -310 -713 -468
l-36 -49 -35 24 c-45 30 -94 44 -159 44 -67 0 -99 -24 -107 -79 -8 -66 -45
-129 -99 -172 -27 -21 -53 -39 -57 -39 -5 0 -29 16 -54 35 -56 43 -95 106
-103 169 -9 62 -38 86 -108 86 -65 0 -114 -14 -159 -44 l-35 -24 -28 39 c-40
58 -162 170 -245 226 -121 81 -315 185 -454 242 -293 121 -615 304 -805 458
-191 154 -270 257 -270 350 0 53 28 86 68 81 23 -2 27 -8 27 -33 0 -27 -3 -30
-35 -33 -19 -2 -39 -7 -43 -12 -16 -15 13 -49 48 -56 91 -17 156 110 109 209
-9 19 -35 46 -58 61 -36 24 -49 27 -108 24 -79 -4 -111 -23 -148 -89 -20 -35
-25 -57 -24 -109 0 -36 8 -82 17 -102 64 -151 -182 190 -283 390 -103 206
-151 395 -151 600 1 136 7 172 42 228 43 70 136 97 179 54z m444 -1020 c36
-13 66 -67 65 -115 0 -37 -1 -38 -10 -15 -29 71 -89 82 -146 25 -34 -34 -35
-37 -31 -98 5 -89 55 -167 172 -274 50 -46 100 -90 111 -99 37 -29 -9 -1 -98
59 -109 74 -165 128 -216 207 -65 101 -75 192 -30 267 11 17 32 36 47 42 36
13 104 13 136 1z m4490 -4 c68 -28 92 -151 49 -246 -48 -105 -119 -177 -288
-292 l-90 -61 127 122 c102 98 134 136 159 187 27 53 31 72 27 114 -12 120
-135 154 -177 50 -9 -23 -10 -22 -10 15 -1 47 29 101 62 115 34 13 104 12 141
-4z"/>
<path d="M6937 10433 c-8 -15 -29 -202 -24 -216 6 -17 175 -54 186 -41 13 14
54 192 48 207 -3 8 -44 24 -91 36 -92 23 -112 25 -119 14z m105 -43 c39 -11
73 -21 75 -24 4 -4 -33 -155 -40 -162 -5 -6 -125 21 -134 29 -6 6 16 177 23
177 2 0 36 -9 76 -20z"/>
<path d="M5600 10118 l0 -118 265 0 265 0 0 118 0 117 -265 1 -265 0 0 -118z
m508 1 l3 -87 -28 -7 c-15 -3 -121 -5 -236 -4 -187 2 -209 4 -218 20 -10 20
-12 152 -2 163 4 3 113 5 242 4 l236 -3 3 -86z"/>
<path d="M6907 10173 c-12 -21 -39 -215 -31 -222 14 -11 422 -94 437 -88 17 7
65 194 52 205 -10 10 -414 112 -439 112 -8 0 -17 -3 -19 -7z m231 -72 c106
-27 195 -51 198 -54 5 -4 -32 -146 -40 -154 -2 -2 -80 12 -173 31 -93 20 -176
36 -184 36 -38 1 -41 14 -25 100 9 45 16 84 16 86 0 7 11 4 208 -45z"/>
<path d="M4651 10082 c-129 -30 -206 -52 -209 -61 -7 -22 41 -223 55 -228 15
-6 422 105 437 118 6 6 2 48 -10 111 -18 97 -21 103 -44 105 -14 1 -117 -19
-229 -45z m237 -29 c6 -27 13 -65 17 -85 l7 -37 -53 -15 c-208 -59 -343 -95
-347 -92 -6 7 -43 178 -39 183 5 5 368 91 389 92 12 1 19 -12 26 -46z"/>
<path d="M5634 9966 c-7 -18 62 -143 84 -154 18 -9 377 -6 400 3 9 3 12 26 10
82 l-3 78 -243 3 c-205 2 -243 0 -248 -12z m464 -73 l3 -53 -188 0 -188 0 -27
49 c-16 27 -28 52 -28 55 0 4 96 5 213 4 l212 -3 3 -52z"/>
<path d="M5050 9912 c-41 -11 -66 -22 -67 -32 -1 -9 32 -40 77 -72 59 -44 86
-58 112 -57 62 1 181 24 185 36 2 6 -38 41 -89 77 -103 73 -111 75 -218 48z
m181 -58 c82 -52 80 -59 -18 -70 -62 -6 -62 -6 -122 37 -33 24 -60 47 -60 50
-1 7 76 25 111 28 10 0 50 -20 89 -45z"/>
<path d="M5654 9767 c-2 -7 -3 -56 -2 -108 l3 -94 342 -3 343 -2 5 22 c3 13 5
61 3 108 l-3 85 -343 3 c-279 2 -343 0 -348 -11z m666 -97 l0 -80 -320 0 -320
0 0 80 0 80 320 0 320 0 0 -80z"/>
<path d="M5400 9744 c-181 -24 -425 -65 -434 -74 -13 -13 15 -201 31 -207 7
-3 75 6 151 21 148 27 337 54 417 58 l50 3 -2 85 c-4 128 -5 130 -61 129 -26
-1 -94 -7 -152 -15z m180 -33 c0 -10 3 -46 6 -80 l7 -61 -44 0 c-55 0 -279
-32 -419 -59 -58 -12 -108 -21 -111 -21 -8 0 -32 150 -26 157 12 12 464 80
545 82 35 1 42 -2 42 -18z"/>
<path d="M6395 9748 c-3 -7 -6 -56 -7 -108 l-3 -95 50 -3 c80 -4 269 -31 417
-58 76 -15 144 -24 151 -21 16 6 44 194 31 207 -16 15 -506 89 -597 90 -21 0
-40 -5 -42 -12z m233 -38 c179 -24 371 -56 379 -63 6 -7 -18 -157 -26 -157 -3
0 -53 9 -111 21 -138 27 -364 59 -417 59 -48 0 -47 -3 -37 99 8 73 -7 70 212
41z"/>
<path d="M4830 9641 c-38 -13 -56 -24 -58 -37 -1 -11 8 -57 21 -104 25 -96 24
-95 122 -68 60 17 62 23 37 138 -21 98 -27 101 -122 71z m95 -87 c9 -41 15
-77 13 -78 -1 -2 -24 -10 -50 -19 l-48 -16 -10 42 c-6 23 -16 57 -22 75 -5 18
-8 35 -6 38 6 6 81 32 94 33 7 1 20 -33 29 -75z"/>
<path d="M7065 9648 c-13 -43 -37 -179 -32 -190 5 -14 79 -38 126 -41 22 -2
26 5 47 78 28 101 30 135 7 135 -10 0 -36 7 -58 15 -50 18 -84 19 -90 3z m88
-34 c51 -17 51 -18 37 -60 -5 -16 -14 -48 -20 -71 l-10 -42 -48 16 c-26 9 -49
17 -51 19 -6 5 30 154 38 154 4 0 28 -7 54 -16z"/>
<path d="M5574 9509 c-44 -5 -105 -12 -135 -17 l-54 -8 2 -79 c1 -44 5 -90 8
-104 7 -27 -14 -27 235 4 69 8 170 15 225 15 55 0 106 4 113 8 10 7 18 103 13
175 -1 15 -15 17 -163 16 -90 -1 -199 -5 -244 -10z m386 -84 c0 -74 -1 -75
-120 -75 -66 0 -224 -15 -371 -36 l-47 -6 -7 71 c-4 40 -5 74 -3 77 16 15 497
47 536 36 8 -3 12 -25 12 -67z"/>
<path d="M6019 9494 c-3 -97 2 -158 13 -166 7 -4 58 -8 113 -8 55 0 156 -7
225 -15 249 -31 228 -31 235 -4 3 14 7 60 8 104 l2 80 -85 12 c-47 7 -181 16
-297 19 l-213 7 -1 -29z m386 -14 c55 -5 120 -13 144 -16 l43 -7 -7 -71 c-4
-39 -8 -73 -10 -75 -2 -1 -57 4 -122 13 -65 10 -174 19 -243 22 -182 8 -170 2
-168 79 l2 65 130 0 c72 0 176 -5 231 -10z"/>
<path d="M5185 9450 c-123 -29 -329 -90 -340 -101 -12 -12 35 -200 51 -206 7
-2 63 12 125 31 63 20 161 47 219 60 122 27 118 21 98 151 -13 79 -13 80 -43
82 -16 1 -66 -7 -110 -17z m118 -42 c3 -18 9 -54 12 -79 l7 -46 -99 -23 c-54
-12 -146 -37 -205 -55 l-107 -32 -15 51 c-32 112 -36 105 94 143 116 34 261
70 291 72 11 1 19 -10 22 -31z"/>
<path d="M6677 9463 c-11 -19 -29 -195 -21 -202 5 -4 56 -18 114 -30 58 -13
154 -39 213 -58 60 -19 114 -32 120 -30 17 6 64 194 52 206 -11 11 -251 80
-362 105 -79 18 -110 20 -116 9z m128 -43 c50 -11 142 -35 205 -53 130 -38
126 -31 94 -143 l-15 -51 -107 32 c-59 18 -151 43 -205 55 l-99 23 7 46 c11
85 17 111 24 111 4 0 47 -9 96 -20z"/>
<path d="M5800 9289 c-123 -10 -301 -33 -415 -55 -184 -35 -483 -127 -492
-151 -8 -20 29 -144 44 -150 8 -3 39 6 71 20 201 89 519 168 745 184 l88 6 52
54 c52 55 84 79 94 70 3 -3 -13 -45 -35 -94 -41 -90 -94 -206 -97 -211 -1 -1
-75 -11 -165 -22 -89 -10 -165 -22 -168 -25 -3 -3 49 -59 116 -123 l122 -117
-31 -159 c-16 -87 -28 -161 -25 -163 3 -3 71 31 150 76 l145 81 146 -81 c81
-45 148 -79 151 -76 3 3 -9 76 -25 163 l-31 159 122 117 c68 64 120 119 117
122 -3 3 -79 15 -169 26 -91 12 -165 22 -165 23 -1 1 -31 67 -68 146 -82 174
-78 195 18 99 l66 -65 87 -6 c225 -16 543 -95 744 -184 32 -14 63 -23 71 -20
15 6 52 130 44 150 -6 15 -174 74 -317 111 -180 47 -380 78 -609 96 -151 11
-227 11 -381 -1z m71 -73 c-42 -42 -44 -43 -125 -50 -214 -16 -533 -93 -727
-176 l-68 -29 -17 51 c-9 27 -12 53 -8 58 5 4 52 22 104 39 243 82 582 144
810 149 l74 2 -43 -44z m592 13 c206 -30 575 -127 611 -159 4 -5 1 -31 -8 -58
l-17 -50 -72 29 c-205 86 -508 159 -723 175 -82 7 -83 7 -126 52 l-43 45 120
-7 c66 -3 182 -16 258 -27z m-475 -329 l-3 -100 -56 77 -56 77 56 121 56 121
3 -98 c1 -54 1 -143 0 -198z m347 16 l80 -12 -150 -48 c-82 -27 -169 -55 -193
-62 l-43 -13 37 52 c21 29 47 64 58 79 22 31 21 31 211 4z m-564 -93 c99 -31
179 -59 179 -63 0 -3 -40 -19 -89 -35 l-89 -28 -96 88 c-53 48 -96 90 -96 92
0 6 16 2 191 -54z m445 -156 c7 -6 55 -249 51 -254 -2 -2 -132 175 -199 272
l-37 53 89 -32 c49 -17 92 -35 96 -39z m-226 -44 l0 -98 -113 -61 c-61 -34
-114 -60 -115 -58 -4 3 220 314 225 314 2 0 3 -44 3 -97z"/>
<path d="M3692 8208 c-6 -9 -11 -643 -13 -1868 -4 -2049 -8 -1904 58 -2185
146 -619 542 -1151 1105 -1484 382 -225 891 -340 1336 -302 579 50 1065 275
1472 681 361 359 580 791 666 1315 17 103 18 229 21 1969 3 1392 1 1862 -8
1872 -16 20 -4621 21 -4637 2z m2433 -951 c60 -30 114 -85 146 -147 19 -37 24
-61 24 -130 0 -110 -32 -181 -109 -242 l-51 -41 -3 32 c-3 24 3 37 25 55 37
31 79 109 88 163 25 156 -145 318 -293 279 -132 -35 -205 -123 -206 -246 0
-53 5 -75 29 -118 16 -29 44 -66 62 -82 21 -19 33 -39 33 -55 0 -31 -2 -31
-54 4 -107 74 -154 225 -110 354 28 82 120 167 214 198 47 16 152 4 205 -24z
m-155 -552 c0 -78 -2 -85 -20 -85 -18 0 -20 7 -20 78 0 80 3 92 27 92 10 0 13
-21 13 -85z m100 0 c0 -69 -3 -85 -15 -85 -12 0 -15 16 -15 85 0 69 3 85 15
85 12 0 15 -16 15 -85z m126 -257 c-29 -491 -78 -1530 -78 -1643 0 -413 168
-709 452 -796 93 -28 233 -23 325 11 111 42 231 135 293 228 14 21 13 25 -8
47 -13 14 -29 25 -35 25 -6 0 -19 6 -29 13 -15 11 -8 20 70 82 48 39 120 110
161 158 l73 88 0 -46 c0 -102 -56 -515 -70 -515 -3 0 -20 20 -38 45 -17 25
-36 45 -41 45 -5 0 -26 -22 -46 -50 -61 -83 -152 -158 -250 -205 -269 -130
-483 -97 -703 110 -130 122 -207 251 -232 385 -14 75 -22 95 -40 95 -18 0 -26
-20 -40 -94 -24 -133 -102 -263 -227 -381 -224 -212 -437 -247 -708 -115 -99
48 -184 117 -246 202 -22 29 -44 53 -50 53 -5 0 -24 -20 -41 -45 -18 -25 -35
-45 -38 -45 -14 0 -70 413 -70 515 l0 46 74 -89 c40 -49 112 -119 160 -157 47
-37 86 -70 86 -71 0 -2 -15 -10 -32 -17 -18 -8 -41 -24 -52 -35 -17 -20 -17
-24 -4 -44 62 -93 182 -186 293 -228 92 -34 232 -39 325 -11 257 78 415 321
450 690 6 58 8 138 5 176 -3 39 -21 385 -40 770 -19 385 -38 748 -41 808 l-7
107 203 0 203 0 -7 -112z m-1072 -1677 c-11 -8 -26 -22 -33 -33 -16 -25 10
-67 79 -132 58 -54 108 -79 197 -97 155 -32 348 59 432 204 29 49 31 51 31 22
0 -16 -5 -59 -11 -95 -13 -82 -51 -125 -158 -178 l-75 -37 -130 0 c-112 1
-139 4 -188 23 -78 31 -140 82 -188 152 -45 66 -59 68 -94 15 -10 -15 -19 -25
-21 -23 -7 7 -34 224 -40 321 l-6 99 113 -114 c109 -109 112 -114 92 -127z
m1947 97 c-6 -74 -16 -167 -22 -206 l-12 -73 -32 36 c-18 19 -35 35 -38 35 -4
0 -24 -27 -47 -60 -48 -70 -110 -121 -188 -152 -49 -19 -76 -22 -188 -23
l-130 0 -75 37 c-107 53 -145 96 -158 178 -6 36 -11 79 -11 95 0 29 2 28 30
-20 85 -147 264 -234 424 -206 93 16 145 40 206 97 70 66 95 107 78 133 -6 11
-22 25 -34 31 -21 12 -16 17 90 124 61 61 112 111 114 110 2 -1 -1 -62 -7
-136z"/>
<path d="M5931 2022 c-93 -50 -93 -197 0 -244 69 -36 148 -13 189 54 71 118
-67 256 -189 190z m136 -55 c13 -13 26 -40 30 -60 5 -32 1 -41 -30 -72 -41
-41 -75 -45 -124 -15 -57 35 -54 132 6 165 35 20 89 12 118 -18z"/>
</g>
</svg>
