<?xml version="1.0" standalone="no"?>
<!DOCTYPE svg PUBLIC "-//W3C//DTD SVG 20010904//EN"
 "http://www.w3.org/TR/2001/REC-SVG-20010904/DTD/svg10.dtd">
<svg version="1.0" xmlns="http://www.w3.org/2000/svg"
 width="1248.000000pt" height="832.000000pt" viewBox="0 0 1248.000000 832.000000"
 preserveAspectRatio="xMidYMid meet">

<g transform="translate(0.000000,832.000000) scale(0.100000,-0.100000)"
fill="#000000" stroke="none">
<path d="M5980 6145 c-15 -46 -69 -91 -119 -100 -45 -7 -113 17 -145 53 l-19
22 -37 -34 c-50 -45 -103 -54 -162 -28 -24 10 -49 26 -57 36 -8 9 -17 13 -20
7 -3 -5 -4 -167 -1 -360 4 -269 8 -353 18 -363 9 -9 46 -13 121 -13 98 0 111
-2 144 -25 56 -37 101 -111 155 -250 70 -181 100 -239 147 -286 45 -45 96 -64
120 -44 22 18 35 77 35 156 0 49 -4 75 -14 83 -21 18 -30 -3 -27 -64 1 -40 -2
-55 -18 -69 -26 -24 -79 -18 -98 11 -14 21 -14 23 11 33 19 7 26 17 26 35 0
15 4 34 10 44 8 16 4 19 -31 24 -82 11 -113 56 -90 131 19 62 24 113 12 120
-6 4 -23 0 -39 -8 -48 -25 -59 8 -17 49 35 36 76 33 109 -6 24 -28 26 -38 24
-101 -3 -65 -1 -71 23 -92 24 -21 37 -23 144 -23 111 -1 120 1 142 23 21 21
23 31 21 100 -3 72 -2 77 25 100 48 41 127 22 127 -31 0 -30 -14 -39 -30 -20
-16 19 -34 19 -50 -1 -11 -12 -9 -27 9 -84 13 -38 20 -77 17 -88 -11 -33 -52
-63 -95 -69 -39 -5 -40 -7 -34 -37 8 -44 21 -66 38 -66 18 0 19 -14 5 -41 -15
-27 -73 -26 -101 2 -18 18 -21 29 -16 69 7 55 -10 82 -33 55 -16 -19 -8 -167
11 -208 24 -53 82 -43 145 25 39 41 75 111 126 246 69 185 114 254 191 294 36
18 51 20 138 13 139 -9 129 -40 129 392 0 194 -3 353 -7 353 -4 0 -18 -11 -32
-24 -58 -53 -138 -53 -208 0 -39 30 -38 30 -71 -1 -40 -37 -93 -51 -141 -36
-49 14 -97 61 -106 101 -5 24 -12 30 -32 30 -41 0 -91 -30 -129 -76 -38 -46
-53 -48 -75 -7 -18 34 -95 83 -130 83 -22 0 -30 -6 -39 -35z m-315 -262 l45
-48 45 48 c39 40 51 47 85 47 85 0 89 -18 18 -84 l-52 -48 -58 6 c-34 4 -66 3
-77 -4 -28 -15 -67 3 -118 53 -62 60 -57 75 24 76 38 1 47 -4 88 -46z m942 2
c45 -53 56 -52 102 6 29 36 36 39 82 39 72 0 75 -21 13 -80 l-49 -47 -102 0
-101 -1 -47 48 c-60 61 -56 80 14 80 46 0 52 -3 88 -45z m-387 -32 l38 -38
-39 -37 -38 -37 -35 35 c-20 20 -36 37 -36 39 0 4 63 72 69 74 1 0 20 -16 41
-36z m-606 -102 c33 -37 -5 -88 -51 -70 -43 16 -24 87 23 89 6 0 19 -9 28 -19z
m129 -2 c28 -39 -11 -92 -52 -70 -27 15 -34 41 -16 67 19 30 49 31 68 3z m118
11 c29 -16 26 -67 -6 -82 -21 -9 -28 -8 -45 7 -24 22 -25 42 -3 67 19 21 27
22 54 8z m690 0 c19 -11 25 -45 11 -66 -13 -19 -39 -23 -61 -8 -25 18 -27 41
-4 66 19 21 27 22 54 8z m133 -6 c22 -22 20 -50 -6 -68 -28 -20 -33 -20 -52 0
-21 21 -20 61 2 73 24 15 38 13 56 -5z m130 0 c30 -30 13 -74 -29 -74 -60 0
-59 88 2 90 6 0 19 -7 27 -16z m-665 -91 l30 -38 37 38 c31 32 42 38 72 35 45
-4 48 -15 13 -57 -27 -33 -30 -34 -111 -37 -82 -4 -83 -3 -116 30 -46 46 -45
66 5 66 33 0 44 -6 70 -37z m-475 -19 c30 -30 13 -74 -29 -74 -12 0 -26 5 -33
12 -7 7 -12 21 -12 33 0 42 44 59 74 29z m139 -5 c32 -44 -14 -94 -59 -64 -28
18 -31 46 -8 69 21 22 50 20 67 -5z m805 9 c7 -7 12 -21 12 -33 0 -12 -5 -26
-12 -33 -7 -7 -21 -12 -33 -12 -12 0 -26 5 -33 12 -7 7 -12 21 -12 33 0 12 5
26 12 33 7 7 21 12 33 12 12 0 26 -5 33 -12z m143 -9 c16 -30 -3 -69 -34 -69
-29 0 -47 17 -47 45 0 45 60 63 81 24z m-622 -106 l40 -48 45 48 c39 42 48 47
87 47 72 0 78 -11 34 -63 -44 -52 -83 -72 -122 -63 -35 9 -39 9 -90 0 -40 -6
-44 -4 -97 46 -66 62 -62 80 14 80 45 0 51 -3 89 -47z m-394 -3 c15 -17 16
-24 7 -45 -20 -43 -82 -28 -82 20 0 45 44 59 75 25z m947 -4 c14 -32 5 -54
-27 -62 -31 -8 -55 10 -55 40 0 49 62 65 82 22z m-562 -126 c25 -25 26 -60 2
-60 -10 0 -23 -5 -30 -12 -48 -48 63 -123 123 -84 39 26 60 63 45 81 -7 8 -21
15 -32 15 -29 0 -33 28 -8 56 29 29 59 31 88 4 45 -42 25 -94 -72 -190 l-66
-64 -70 72 c-39 40 -75 84 -80 98 -13 33 -3 71 23 89 29 20 53 19 77 -5z"/>
<path d="M6712 5234 c-27 -11 -42 -35 -103 -156 -115 -232 -192 -322 -316
-368 -32 -12 -68 -31 -81 -43 -22 -20 -24 -21 -50 -4 -15 10 -58 33 -97 51
-130 61 -220 169 -318 378 -56 119 -82 148 -135 148 -77 0 -97 -67 -38 -126
28 -28 42 -34 75 -34 50 0 54 -19 12 -49 -46 -33 -106 -28 -171 14 -51 32 -56
33 -68 17 -9 -11 -11 -33 -7 -67 11 -89 16 -105 41 -122 22 -14 28 -14 76 7
41 17 66 21 118 18 86 -5 119 -28 199 -146 71 -103 123 -142 188 -142 24 0 43
-4 43 -9 0 -19 -61 -22 -116 -6 -48 14 -67 28 -131 93 -89 92 -118 112 -161
112 -64 0 -132 -56 -132 -109 0 -60 124 -154 356 -270 91 -46 186 -102 222
-131 63 -51 64 -51 85 -33 12 10 24 21 27 24 18 21 147 98 219 131 189 87 361
208 375 263 15 58 -54 125 -129 125 -48 0 -74 -17 -160 -109 -81 -85 -165
-125 -225 -106 -30 9 -7 25 36 25 49 0 108 51 169 145 72 113 121 145 214 144
39 0 84 -7 111 -18 54 -22 84 -13 100 32 13 39 13 154 0 162 -6 4 -22 -2 -36
-12 -86 -61 -152 -70 -203 -27 -40 33 -39 44 3 44 19 0 46 4 60 10 27 10 66
64 66 91 0 45 -66 75 -118 53z m-502 -726 c0 -4 13 -14 30 -23 l29 -15 -46
-47 c-33 -32 -48 -42 -51 -32 -3 8 -19 27 -37 43 l-32 28 41 43 c36 39 42 42
54 27 6 -9 12 -19 12 -24z"/>
<path d="M2950 3802 c-71 -27 -103 -47 -147 -95 -81 -88 -117 -192 -117 -337
0 -218 97 -370 274 -430 53 -18 79 -21 140 -17 103 7 163 32 232 95 103 95
145 217 135 392 -14 254 -168 412 -401 409 -40 0 -91 -8 -116 -17z m270 -83
c89 -40 132 -102 151 -217 27 -160 -42 -367 -148 -448 -107 -81 -268 -70 -363
26 -59 58 -80 122 -80 240 0 97 30 209 74 278 33 51 94 108 136 126 53 23 174
20 230 -5z"/>
<path d="M3563 3794 c-8 -21 6 -34 37 -34 57 0 59 -11 56 -360 -1 -238 -5
-321 -15 -340 -22 -42 -52 -69 -83 -75 -23 -5 -28 -12 -26 -28 3 -22 5 -22
308 -27 319 -6 340 -9 389 -53 31 -29 47 -69 56 -139 7 -56 9 -58 36 -58 l29
0 0 149 0 148 -52 5 c-34 4 -56 12 -65 24 -10 14 -13 92 -13 369 0 389 -2 379
65 387 22 2 30 8 30 23 0 20 -7 20 -373 21 -298 1 -375 -2 -379 -12z m415 -74
l172 0 0 -351 c0 -222 -4 -357 -10 -370 -10 -18 -23 -19 -225 -19 -118 0 -215
3 -215 8 1 4 9 32 20 62 17 50 19 85 20 362 0 323 0 322 45 313 11 -3 98 -5
193 -5z"/>
<path d="M4464 3795 c-9 -23 5 -35 41 -35 24 0 38 -6 45 -19 6 -13 10 -147 10
-368 0 -386 0 -389 -63 -395 -24 -2 -32 -8 -32 -23 0 -20 8 -20 394 -23 217
-1 399 2 403 6 16 16 -4 42 -33 42 -44 0 -59 31 -59 122 l0 78 -40 0 -39 0 -3
-82 -3 -83 -220 0 -220 0 -3 179 c-1 99 2 184 7 189 5 5 28 -1 57 -14 66 -30
145 -35 214 -12 50 16 55 21 58 51 4 37 6 37 -71 15 -52 -14 -68 -15 -120 -4
-91 19 -137 45 -138 79 0 15 -2 68 -3 118 -2 51 0 97 3 103 5 8 71 11 222 9
l214 -3 3 -82 3 -83 39 0 40 0 0 78 c0 91 15 122 60 122 32 0 43 11 34 34 -5
14 -49 16 -400 16 -336 0 -395 -2 -400 -15z"/>
<path d="M5393 3804 c-7 -3 -13 -14 -13 -25 0 -14 7 -19 28 -19 62 0 62 0 62
-398 0 -347 -1 -362 -19 -372 -11 -5 -31 -10 -45 -10 -21 0 -26 -5 -26 -24 l0
-25 513 -3 514 -3 36 -28 c49 -37 58 -56 64 -143 l6 -75 31 3 31 3 3 125 c2
69 0 140 -3 158 -5 28 -10 32 -38 32 -18 0 -38 5 -45 12 -9 9 -12 102 -12 358
0 388 0 390 66 390 31 0 35 3 32 23 -3 21 -6 22 -123 23 -142 1 -155 -1 -155
-27 0 -15 7 -19 35 -19 65 0 66 -3 63 -396 l-3 -349 -180 -6 c-99 -3 -183 -4
-187 -2 -5 2 -8 168 -8 368 0 350 1 365 19 375 11 5 32 10 46 10 22 0 26 4 23
23 -3 22 -6 22 -133 22 -127 0 -130 0 -133 -22 -3 -20 1 -23 27 -23 62 0 61 5
61 -391 l0 -359 -185 0 -185 0 2 368 3 367 43 10 c35 7 42 13 40 30 -3 19 -10
20 -123 22 -66 1 -126 -1 -132 -3z"/>
<path d="M6727 3804 c-4 -4 -7 -16 -7 -26 0 -13 8 -18 28 -18 16 0 37 -6 48
-14 18 -14 19 -30 19 -376 0 -346 -1 -362 -19 -376 -11 -8 -32 -14 -48 -14
-23 0 -28 -4 -28 -25 0 -25 1 -25 84 -25 l83 0 204 271 c112 149 232 310 267
357 34 48 67 89 72 90 7 2 10 -108 10 -316 0 -353 1 -346 -65 -354 -22 -2 -30
-8 -30 -23 0 -19 8 -20 133 -23 l132 -3 0 26 c0 22 -4 25 -34 25 -66 0 -66 2
-66 396 0 327 1 352 18 367 10 10 33 17 51 17 28 0 32 3 29 23 -3 20 -9 22
-84 25 l-81 3 -86 -113 c-464 -613 -453 -598 -461 -598 -3 0 -6 141 -6 314 0
346 0 346 61 346 26 0 30 3 27 23 -3 21 -7 22 -124 25 -66 1 -123 -1 -127 -4z"/>
<path d="M7781 3801 c-23 -15 -5 -41 28 -41 60 0 61 -7 61 -390 0 -383 0 -386
-63 -392 -24 -2 -32 -8 -32 -23 0 -19 7 -20 135 -20 128 0 135 1 135 20 0 15
-8 21 -32 23 -56 6 -63 27 -63 199 l0 153 267 -2 268 -3 -4 -160 c-1 -90 -7
-165 -13 -172 -6 -7 -26 -13 -44 -13 -30 0 -34 -3 -34 -25 l0 -25 135 0 135 0
0 25 c0 22 -4 25 -35 25 -24 0 -37 6 -45 19 -6 13 -10 149 -10 375 0 391 -1
386 61 386 26 0 30 3 27 23 -3 21 -8 22 -113 25 -130 3 -155 -1 -155 -28 0
-16 7 -20 34 -20 18 0 38 -6 44 -12 11 -15 23 -311 12 -327 -4 -8 -86 -11
-266 -9 l-259 3 -3 155 c-3 148 -2 156 19 173 12 9 35 17 51 17 25 0 29 4 26
23 -3 21 -7 22 -128 25 -69 1 -131 -2 -139 -7z"/>
<path d="M9070 3790 c0 -17 7 -20 45 -20 80 0 83 11 -110 -460 -149 -363 -135
-338 -187 -342 -30 -2 -43 -7 -43 -18 0 -13 21 -15 125 -15 109 0 125 2 128
17 2 12 -5 17 -25 20 -25 3 -28 7 -27 38 1 19 12 62 25 95 l24 60 215 0 214 0
33 -88 c33 -88 35 -107 7 -107 -8 0 -14 -7 -14 -15 0 -12 18 -15 105 -15 87 0
105 3 105 15 0 8 -8 15 -18 15 -48 0 -72 37 -131 203 -17 45 -41 111 -54 147
-14 36 -60 157 -102 270 -42 112 -82 208 -88 212 -7 4 -60 8 -119 8 -101 0
-108 -1 -108 -20z m203 -148 c57 -146 137 -362 137 -370 0 -5 -55 -12 -122
-15 -178 -10 -208 -9 -214 7 -4 11 140 393 162 428 8 13 16 3 37 -50z"/>
<path d="M3998 2485 c-24 -14 -48 -43 -48 -59 0 -14 32 -4 50 14 13 13 33 20
59 20 76 0 81 -60 5 -70 -26 -3 -40 -11 -42 -22 -3 -15 4 -18 36 -18 25 0 45
-6 55 -18 21 -23 21 -27 1 -46 -26 -27 -80 -20 -116 14 -35 34 -54 27 -38 -14
11 -30 62 -56 107 -56 15 0 43 9 61 20 25 16 32 26 32 52 0 17 -7 39 -16 49
-15 16 -15 20 0 41 22 31 20 51 -8 77 -31 30 -100 37 -138 16z"/>
<path d="M4225 2488 c-3 -8 -4 -68 -3 -134 l3 -119 95 0 c81 0 95 2 98 17 3
15 -7 18 -75 20 l-78 3 -3 38 -3 37 70 0 c56 0 71 3 71 15 0 11 -16 15 -67 17
l-68 3 0 35 0 35 74 5 c47 3 76 10 79 18 3 9 -14 12 -61 12 -35 0 -78 3 -96 6
-22 5 -32 2 -36 -8z"/>
<path d="M4487 2493 c-4 -3 -7 -64 -7 -135 0 -107 2 -128 15 -128 12 0 15 16
15 81 0 53 4 79 11 77 6 -2 25 -37 43 -78 23 -54 37 -75 50 -75 21 0 27 8 61
88 27 61 48 68 45 13 -4 -76 0 -106 15 -106 13 0 15 19 13 133 -4 165 -14 171
-74 39 -23 -52 -46 -98 -52 -104 -6 -6 -27 26 -60 96 -48 100 -59 115 -75 99z"/>
<path d="M4853 2493 c-9 -3 -13 -33 -13 -101 0 -85 -3 -98 -22 -119 -16 -17
-19 -26 -10 -35 8 -8 17 -7 36 5 26 18 34 48 39 157 l2 55 55 0 55 0 5 -110
c4 -89 8 -110 20 -110 12 0 15 22 18 124 2 93 -1 126 -10 133 -13 8 -152 9
-175 1z"/>
<path d="M5835 2488 c-3 -7 -6 -58 -7 -113 l-3 -100 -45 0 -45 0 -3 108 c-2
99 -4 107 -22 107 -19 0 -20 -7 -20 -111 l0 -110 -47 3 -48 3 -3 108 c-2 86
-6 107 -17 107 -12 0 -15 -23 -15 -131 l0 -131 84 7 c47 4 114 4 150 0 63 -7
65 -8 68 -38 2 -17 9 -32 16 -35 8 -3 12 12 12 52 0 31 -4 56 -10 56 -5 0 -11
48 -12 112 -2 78 -7 113 -15 116 -7 2 -15 -2 -18 -10z"/>
<path d="M6000 2482 c-65 -32 -89 -125 -50 -189 53 -88 187 -79 227 15 30 72
0 148 -70 177 -48 19 -64 19 -107 -3z m121 -51 c53 -53 30 -151 -38 -164 -35
-7 -88 15 -102 41 -15 28 -14 95 2 114 36 46 97 50 138 9z"/>
<path d="M6408 2484 c-26 -11 -43 -28 -58 -58 -25 -52 -25 -70 -1 -122 55
-122 241 -81 241 53 0 27 -6 59 -13 72 -29 58 -105 83 -169 55z m123 -50 c54
-58 17 -164 -57 -164 -73 0 -113 46 -100 114 14 73 108 102 157 50z"/>
<path d="M6655 2487 c-3 -7 -4 -67 -3 -133 l3 -119 35 -3 c55 -6 120 8 141 29
24 24 25 70 1 99 -14 18 -33 24 -83 29 -63 6 -64 6 -64 36 l0 30 73 3 c63 2
73 5 70 20 -3 14 -17 17 -86 20 -62 2 -84 -1 -87 -11z m155 -156 c13 -25 13
-27 -6 -45 -10 -10 -33 -16 -65 -16 -44 0 -49 3 -55 25 -11 45 0 55 60 55 44
0 57 -4 66 -19z"/>
<path d="M6912 2478 c-18 -46 -22 -77 -12 -83 10 -6 34 40 42 79 5 28 -20 32
-30 4z"/>
<path d="M7054 2484 c-41 -20 -64 -63 -64 -119 0 -58 22 -98 67 -119 41 -20
73 -20 117 -2 31 13 66 49 66 68 0 17 -30 7 -54 -17 -46 -46 -156 -21 -156 36
0 16 7 19 55 19 42 0 55 3 55 15 0 11 -12 15 -50 15 -63 0 -77 21 -36 57 38
32 94 31 131 -3 36 -33 60 -30 42 6 -26 52 -112 74 -173 44z"/>
<path d="M7607 2494 c-9 -9 -9 -216 -1 -238 3 -9 12 -16 20 -16 9 0 14 17 16
53 l3 52 75 0 75 0 5 -54 c3 -32 10 -56 18 -59 10 -3 12 25 10 129 -2 92 -7
134 -15 136 -8 3 -13 -14 -15 -54 l-3 -58 -75 0 -75 0 -5 54 c-5 51 -17 71
-33 55z"/>
<path d="M7897 2493 c-4 -3 -3 -11 2 -17 5 -6 28 -48 51 -93 35 -69 41 -85 30
-98 -7 -8 -19 -15 -26 -15 -8 0 -14 -7 -14 -15 0 -21 52 -19 79 3 23 19 113
220 105 234 -12 19 -27 4 -53 -54 -16 -35 -31 -71 -35 -80 -10 -32 -25 -19
-67 62 -38 74 -55 91 -72 73z"/>
<path d="M8219 2477 c-62 -42 -76 -140 -28 -201 42 -54 149 -59 195 -9 47 50
24 71 -29 27 -26 -22 -38 -25 -76 -21 -31 3 -51 12 -63 28 -27 33 -18 43 42
49 75 7 77 28 4 32 -66 3 -76 16 -40 53 34 34 93 34 134 0 33 -28 52 -32 52
-12 0 18 -39 53 -73 66 -44 17 -81 13 -118 -12z"/>
<path d="M5115 2465 c-14 -13 -25 -35 -25 -47 0 -32 27 -68 51 -68 25 0 24
-13 -7 -60 -25 -38 -26 -64 -1 -54 8 3 27 27 43 54 23 40 34 50 56 50 26 0 27
-3 30 -52 2 -39 7 -53 18 -53 12 0 15 22 18 128 l3 127 -81 0 c-73 0 -83 -3
-105 -25z m143 -47 l3 -38 -53 0 c-56 0 -78 12 -78 42 0 25 29 38 80 35 44 -2
45 -3 48 -39z"/>
<path d="M7330 2423 c0 -100 -10 -145 -32 -151 -15 -3 -18 -14 -18 -58 0 -41
4 -54 15 -54 9 0 15 9 15 23 0 44 11 48 111 45 l94 -3 3 -32 c2 -21 9 -33 18
-33 21 0 20 106 -1 114 -12 4 -15 26 -15 111 l0 105 -95 0 -95 0 0 -67z m155
-58 l0 -90 -62 -3 -63 -3 0 89 c0 49 3 92 7 96 4 4 32 6 63 4 l55 -3 0 -90z"/>
<path d="M5361 2239 c-15 -43 -14 -82 1 -77 14 5 40 86 32 99 -10 17 -22 9
-33 -22z"/>
</g>
</svg>
